<svg xmlns="http://www.w3.org/2000/svg" width="19" height="19" viewBox="0 0 19 19" fill="none">
<path fill-rule="evenodd" clip-rule="evenodd" d="M4.98286 0H14.0172C15.1182 0 15.6682 9.90906e-08 16.1128 0.154847C16.532 0.303412 16.9113 0.546631 17.2212 0.865604C17.5311 1.18458 17.7633 1.57071 17.8997 1.99401C18.0498 2.4519 18.0498 3.01808 18.0498 4.15141V17.4549C18.0498 18.27 17.1141 18.7032 16.5223 18.1617C16.3562 18.0083 16.1384 17.9231 15.9124 17.9231C15.6863 17.9231 15.4685 18.0083 15.3025 18.1617L14.8436 18.5816C14.5528 18.8506 14.1711 19 13.7749 19C13.3787 19 12.9971 18.8506 12.7062 18.5816C12.4153 18.3126 12.0337 18.1632 11.6375 18.1632C11.2413 18.1632 10.8596 18.3126 10.5687 18.5816C10.2778 18.8506 9.89621 19 9.50001 19C9.1038 19 8.72217 18.8506 8.43128 18.5816C8.14039 18.3126 7.75876 18.1632 7.36256 18.1632C6.96635 18.1632 6.58472 18.3126 6.29383 18.5816C6.00294 18.8506 5.62131 19 5.2251 19C4.8289 19 4.44727 18.8506 4.15638 18.5816L3.69754 18.1617C3.53149 18.0083 3.31372 17.9231 3.08765 17.9231C2.86157 17.9231 2.64381 18.0083 2.47776 18.1617C1.88592 18.7032 0.950195 18.27 0.950195 17.4549V4.15141C0.950195 3.01808 0.950195 2.45095 1.10029 1.99496C1.38529 1.12763 2.04552 0.44744 2.8872 0.154847C3.33179 9.90906e-08 3.88183 0 4.98286 0ZM12.406 6.17487C12.5307 6.03383 12.5945 5.84918 12.5835 5.66126C12.5724 5.47334 12.4875 5.29741 12.3472 5.17191C12.2069 5.04642 12.0226 4.98154 11.8346 4.99147C11.6466 5.00139 11.4702 5.08531 11.3439 5.22489L8.48258 8.43012L7.6561 7.50484C7.52979 7.36526 7.35337 7.28134 7.16539 7.27142C6.9774 7.26149 6.79313 7.32637 6.65282 7.45186C6.51252 7.57736 6.42758 7.75329 6.41656 7.94121C6.40554 8.12913 6.46934 8.31378 6.59402 8.45481L7.95059 9.97478C8.01743 10.0497 8.09932 10.1096 8.19092 10.1506C8.28252 10.1916 8.38175 10.2128 8.48211 10.2128C8.58247 10.2128 8.68169 10.1916 8.77329 10.1506C8.86489 10.1096 8.94678 10.0497 9.01362 9.97478L12.4069 6.17487H12.406ZM5.2251 12.1122C5.03614 12.1122 4.85492 12.1873 4.7213 12.3209C4.58768 12.4545 4.51262 12.6358 4.51262 12.8247C4.51262 13.0137 4.58768 13.1949 4.7213 13.3285C4.85492 13.4621 5.03614 13.5372 5.2251 13.5372H13.7749C13.9639 13.5372 14.1451 13.4621 14.2787 13.3285C14.4123 13.1949 14.4874 13.0137 14.4874 12.8247C14.4874 12.6358 14.4123 12.4545 14.2787 12.3209C14.1451 12.1873 13.9639 12.1122 13.7749 12.1122H5.2251Z" fill="url(#paint0_angular_952_3415)"/>
<defs>
<radialGradient id="paint0_angular_952_3415" cx="0" cy="0" r="1" gradientUnits="userSpaceOnUse" gradientTransform="translate(9.50001 9.5) rotate(90) scale(9.5 8.54981)">
<stop offset="0.10012" stop-color="#0047FF"/>
<stop offset="0.113784" stop-color="#2A70FA" stop-opacity="0.66"/>
</radialGradient>
</defs>
</svg>