<svg xmlns="http://www.w3.org/2000/svg" width="14" height="15" viewBox="0 0 14 15" fill="none">
  <path d="M6.84941 14.1349C10.3561 14.1349 13.1988 11.2921 13.1988 7.78546C13.1988 4.27878 10.3561 1.43605 6.84941 1.43605C3.34273 1.43605 0.5 4.27878 0.5 7.78546C0.5 11.2921 3.34273 14.1349 6.84941 14.1349Z" fill="#D68F30"/>
  <path d="M0.929688 9.43515V10.0838C0.996104 10.2554 1.07027 10.4247 1.15108 10.5886V9.43515H0.929688ZM1.65363 10.6561V11.4354C1.74218 11.5605 1.83406 11.6833 1.93036 11.8018V10.6561H1.65363ZM2.61224 11.6745V12.5147C2.71961 12.611 2.8303 12.7028 2.94432 12.7914V11.6745H2.61224ZM3.79223 12.4482V13.3515C3.90072 13.4113 4.01141 13.4677 4.12432 13.522V12.4482H3.79223ZM5.13053 12.9408V13.8972C5.24011 13.9282 5.35081 13.9559 5.46261 13.9814V12.9408H5.13053ZM6.69685 13.1113V14.1308C6.74666 14.1319 6.79647 14.1341 6.84739 14.1341C6.90827 14.1341 6.96915 14.1308 7.02893 14.1297V13.1113H6.69685ZM8.26317 12.9331V13.9736C8.37497 13.9481 8.48566 13.9194 8.59525 13.8884V12.9331H8.26317ZM9.59814 12.4338V13.5087C9.71104 13.4544 9.82174 13.3958 9.93022 13.3349V12.4338H9.59814ZM10.7748 11.6535V12.7715C10.8888 12.6824 10.9995 12.5894 11.1069 12.4925V11.6535H10.7748ZM12.06 10.6317H11.7832V11.7774C11.8795 11.6579 11.9725 11.535 12.06 11.4088V10.6317ZM12.7795 9.40636H12.5581V10.562C12.6389 10.3949 12.7131 10.2233 12.7795 10.0495V9.40636Z" fill="#BC6F00"/>
  <path d="M6.84941 13.5638C10.3561 13.5638 13.1988 10.7211 13.1988 7.21441C13.1988 3.70773 10.3561 0.865 6.84941 0.865C3.34273 0.865 0.5 3.70773 0.5 7.21441C0.5 10.7211 3.34273 13.5638 6.84941 13.5638Z" fill="#FFF176"/>
  <path d="M6.85017 12.9981C10.0445 12.9981 12.6339 10.4086 12.6339 7.21433C12.6339 4.02005 10.0445 1.43057 6.85017 1.43057C3.65589 1.43057 1.06641 4.02005 1.06641 7.21433C1.06641 10.4086 3.65589 12.9981 6.85017 12.9981Z" fill="#F2BC1A"/>
  <path d="M1.05423 7.4359C1.01327 6.67432 1.145 5.90168 1.41066 5.17774C1.6874 4.45602 2.11135 3.78853 2.64601 3.22178C3.71974 2.08606 5.27831 1.42743 6.84906 1.41968C8.41981 1.42853 9.97949 2.08606 11.051 3.22288C11.5868 3.78853 12.0096 4.45712 12.2864 5.17774C12.5531 5.90279 12.6848 6.67432 12.6428 7.4359H12.6206C12.6185 6.67616 12.4681 5.92415 12.1779 5.22202C11.8872 4.52068 11.4627 3.88265 10.9281 3.34354C10.3933 2.80496 9.7576 2.37693 9.05741 2.08384C8.35745 1.79159 7.60647 1.64111 6.84795 1.64111C6.08944 1.64111 5.33846 1.79159 4.6385 2.08384C3.93831 2.37693 3.30265 2.80496 2.76777 3.34354C2.23286 3.88235 1.80833 4.52046 1.51803 5.22202C1.22784 5.92415 1.07744 6.67616 1.07526 7.4359H1.05423Z" fill="#E08F00"/>
  <path d="M6.84941 0.865658C3.34262 0.865658 0.5 3.70828 0.5 7.21507C0.5 10.7219 3.34262 13.5645 6.84941 13.5645C10.3562 13.5645 13.1988 10.7219 13.1988 7.21507C13.1988 3.70828 10.3562 0.865658 6.84941 0.865658ZM6.84941 12.9988C3.65478 12.9988 1.06565 10.4097 1.06565 7.21507C1.06565 4.01933 3.65478 1.4302 6.84941 1.4302C10.044 1.4302 12.6332 4.01933 12.6332 7.21396C12.6332 10.4086 10.044 12.9988 6.84941 12.9988Z" fill="#FFF176"/>
  <path d="M3.97055 2.77888L4.11113 3.21391L4.56941 3.03901V3.21391L4.19858 3.48289L4.34027 3.74192V3.91792L3.97055 3.64893L3.59973 3.91792V3.74192L3.74142 3.48289L3.3717 3.21391V3.03901L3.82886 3.21391L3.97055 2.77888ZM2.20166 5.27614L2.34335 5.71116L2.80052 5.53627V5.71116L2.4308 5.98015L2.57249 6.24028V6.41518L2.20166 6.14619L1.83194 6.41518V6.24028L1.97363 5.98015L1.60281 5.71116V5.53627L2.06108 5.71116L2.20166 5.27614ZM2.14964 8.35454L2.29132 8.78957L2.74849 8.61467V8.78957L2.37877 9.05855L2.52046 9.31868V9.49358L2.14964 9.22459L1.77992 9.49358V9.31868L1.92161 9.05855L1.55078 8.78957V8.61467L2.00905 8.78957L2.14964 8.35454ZM4.03808 10.7987L4.17976 11.2337L4.63693 11.0588V11.2337L4.26721 11.5027L4.4089 11.7617V11.9377L4.03808 11.6687L3.66836 11.9377V11.7617L3.81005 11.5027L3.43922 11.2337V11.0588L3.89749 11.2337L4.03808 10.7987ZM9.72886 2.77888L9.58827 3.21391L9.13 3.03901V3.21391L9.50083 3.48289L9.35914 3.74192V3.91792L9.72886 3.64893L10.0997 3.91792V3.74192L9.95799 3.48289L10.3277 3.21391V3.03901L9.87054 3.21391L9.72886 2.77888ZM11.4977 5.27614L11.3561 5.71116L10.8989 5.53627V5.71116L11.2686 5.98015L11.1269 6.24028V6.41518L11.4977 6.14619L11.8675 6.41518V6.24028L11.7258 5.98015L12.0966 5.71116V5.53627L11.6383 5.71116L11.4977 5.27614ZM11.5498 8.35454L11.4081 8.78957L10.9509 8.61467V8.78957L11.3206 9.05855L11.1789 9.31868V9.49358L11.5498 9.22459L11.9195 9.49358V9.31868L11.7778 9.05855L12.1486 8.78957V8.61467L11.6904 8.78957L11.5498 8.35454ZM9.66133 10.7987L9.51964 11.2337L9.06248 11.0588V11.2337L9.4322 11.5027L9.29051 11.7617V11.9377L9.66133 11.6687L10.0311 11.9377V11.7617L9.88936 11.5027L10.2602 11.2337V11.0588L9.80191 11.2337L9.66133 10.7987Z" fill="#D38200"/>
  <path d="M9.66136 10.6227L9.80194 11.0578H10.2602L9.88938 11.3268L10.0311 11.7618L9.66136 11.4928L9.29053 11.7618L9.43222 11.3268L9.0625 11.0578H9.51967L9.66136 10.6227ZM11.5498 8.17973L11.6904 8.61476H12.1487L11.7778 8.88374L11.9195 9.31877L11.5498 9.04979L11.179 9.31877L11.3207 8.88374L10.9509 8.61476H11.4081L11.5498 8.17973ZM11.4978 5.10133L11.6384 5.53636H12.0966L11.7258 5.80534L11.8675 6.24037L11.4978 5.97138L11.1269 6.24037L11.2686 5.80534L10.8989 5.53636H11.3561L11.4978 5.10133ZM9.72888 2.60296L9.87057 3.03799H10.3277L9.95802 3.30698L10.0997 3.74201L9.72888 3.47302L9.35916 3.74201L9.50085 3.30698L9.13002 3.03799H9.5883L9.72888 2.60296Z" fill="#FFF176"/>
  <path d="M6.85276 11.7618L6.99445 12.1969L7.45162 12.022V12.1969L7.0819 12.4659L7.22359 12.726V12.9009L6.85276 12.6319L6.48304 12.9009V12.726L6.62473 12.4659L6.25391 12.1969V12.022L6.71218 12.1969L6.85276 11.7618Z" fill="#D38200"/>
  <path d="M6.85276 11.5293L6.99445 11.9643H7.45162L7.0819 12.2333L7.22359 12.6683L6.85276 12.3994L6.48304 12.6683L6.62473 12.2333L6.25391 11.9643H6.71218L6.85276 11.5293Z" fill="#FFF176"/>
  <path d="M6.85276 1.84253L6.99445 2.27756L7.45162 2.10267V2.27756L7.0819 2.54655L7.22359 2.80668V2.98158L6.85276 2.71259L6.48304 2.98158V2.80668L6.62473 2.54655L6.25391 2.27756V2.10267L6.71218 2.27756L6.85276 1.84253Z" fill="#D38200"/>
  <path d="M6.85524 1.66761L6.99693 2.10264H7.45409L7.08438 2.37162L7.22606 2.80665L6.85524 2.53766L6.48552 2.80665L6.62721 2.37162L6.25638 2.10264H6.71466L6.85524 1.66761ZM4.03808 10.6228L3.89749 11.0578H3.43922L3.81005 11.3268L3.66836 11.7618L4.03808 11.4928L4.4089 11.7618L4.26721 11.3268L4.63693 11.0578H4.17976L4.03808 10.6228ZM2.14964 8.17974L2.00905 8.61477H1.55078L1.92161 8.88376L1.77992 9.31878L2.14964 9.0498L2.52046 9.31878L2.37877 8.88376L2.74849 8.61477H2.29132L2.14964 8.17974ZM2.20166 5.10134L2.06108 5.53637H1.60281L1.97363 5.80535L1.83194 6.24038L2.20166 5.97139L2.57249 6.24038L2.4308 5.80535L2.80052 5.53637H2.34335L2.20166 5.10134ZM3.97055 2.60297L3.82886 3.038H3.3717L3.74142 3.30699L3.59973 3.74202L3.97055 3.47303L4.34027 3.74202L4.19858 3.30699L4.56941 3.038H4.11113L3.97055 2.60297Z" fill="#FFF176"/>
  <path d="M10.3016 5.75088C10.3016 5.71214 3.39655 5.75088 3.39655 5.75088L3.33456 5.93685V6.25454C3.33456 6.3121 3.38105 6.35859 3.43861 6.35859H10.2529C10.3105 6.35859 10.357 6.3121 10.357 6.25454V5.9457L10.3016 5.75088ZM10.3116 9.87977H3.42533L2.96484 10.1111L2.97038 10.4089C2.97149 10.441 2.99805 10.4676 3.03126 10.4676H10.6614C10.6935 10.4676 10.7212 10.4421 10.7223 10.4089L10.7278 10.1167L10.3116 9.87977Z" fill="#D38200"/>
  <path d="M4.5378 8.97429H4.14152C4.07621 8.97429 4.02307 8.76839 4.02307 8.70309L4.65514 8.68316C4.65514 8.74847 4.602 8.97429 4.5378 8.97429ZM4.67285 6.83678H4.00536C3.95555 6.83678 3.91238 6.80357 3.89799 6.75598L3.84596 6.32095H4.82339L4.77911 6.75598C4.76583 6.80357 4.72266 6.83678 4.67285 6.83678ZM4.00536 9.10601H4.67285C4.72266 9.10601 4.82118 9.13701 4.83446 9.1846C4.83446 9.1846 4.83114 9.3916 4.83114 9.47352C4.83114 9.55543 4.79793 9.6152 4.72377 9.6152H3.95444C3.88028 9.6152 3.84707 9.54879 3.84707 9.47352C3.84707 9.39824 3.84375 9.18682 3.84375 9.18682C3.85814 9.13922 3.95555 9.10601 4.00536 9.10601ZM9.68507 8.97429H9.28879C9.22348 8.97429 9.17035 8.76839 9.17035 8.70309L9.80241 8.68316C9.80241 8.74847 9.75038 8.97429 9.68507 8.97429ZM9.82012 6.83678H9.15264C9.10282 6.83678 9.05965 6.80357 9.04526 6.75598L8.99324 6.32095H9.97067L9.92639 6.75598C9.9131 6.80357 9.86993 6.83678 9.82012 6.83678ZM9.15264 9.10601H9.82012C9.86993 9.10601 9.96845 9.13701 9.98173 9.1846C9.98173 9.1846 9.97841 9.3916 9.97841 9.47352C9.97841 9.55543 9.94521 9.6152 9.87104 9.6152H9.10172C9.02755 9.6152 8.99434 9.54879 8.99434 9.47352C8.99434 9.39824 8.99102 9.18682 8.99102 9.18682C9.00541 9.13922 9.10282 9.10601 9.15264 9.10601ZM7.96932 8.97429H7.57303C7.50772 8.97429 7.45459 8.76839 7.45459 8.70309L8.08665 8.68316C8.08665 8.74847 8.03463 8.97429 7.96932 8.97429ZM8.10436 6.83678H7.43688C7.38707 6.83678 7.3439 6.80357 7.32951 6.75598L7.27748 6.32095H8.25491L8.21063 6.75598C8.19735 6.80357 8.15418 6.83678 8.10436 6.83678ZM7.43688 9.10601H8.10436C8.15418 9.10601 8.25269 9.13701 8.26598 9.1846C8.26598 9.1846 8.26266 9.3916 8.26266 9.47352C8.26266 9.55543 8.22945 9.6152 8.15528 9.6152H7.38596C7.31179 9.6152 7.27859 9.54879 7.27859 9.47352C7.27859 9.39824 7.27527 9.18682 7.27527 9.18682C7.28966 9.13922 7.38707 9.10601 7.43688 9.10601ZM6.25356 8.97429H5.85727C5.79197 8.97429 5.73883 8.76839 5.73883 8.70309L6.37089 8.68316C6.37089 8.74847 6.31887 8.97429 6.25356 8.97429ZM6.38861 6.83678H5.72112C5.67131 6.83678 5.62814 6.80357 5.61375 6.75598L5.56172 6.32095H6.53915L6.49487 6.75598C6.48159 6.80357 6.43842 6.83678 6.38861 6.83678ZM5.72112 9.10601H6.38861C6.43842 9.10601 6.53694 9.13701 6.55022 9.1846C6.55022 9.1846 6.5469 9.3916 6.5469 9.47352C6.5469 9.55543 6.51369 9.6152 6.43953 9.6152H5.6702C5.59604 9.6152 5.56283 9.54879 5.56283 9.47352C5.56283 9.39824 5.55951 9.18682 5.55951 9.18682C5.5739 9.13922 5.67131 9.10601 5.72112 9.10601Z" fill="#D38200"/>
  <path d="M10.3528 5.45421C10.3528 5.41547 10.3329 5.37894 10.303 5.36123L6.85158 3.40194L3.39571 5.35901C3.3625 5.37894 3.34147 5.41547 3.34147 5.45421L3.33594 5.93794C3.33594 5.99883 3.38575 6.04864 3.44663 6.04864H10.2466C10.3074 6.04864 10.3573 5.99883 10.3573 5.93794L10.3528 5.45421Z" fill="#FFF176"/>
  <path d="M9.48492 5.32282L6.84598 3.82513L4.20703 5.32282H9.48492Z" fill="#F2BC1A"/>
  <path d="M8.51562 5.13988L6.84746 4.19234L5.1793 5.13988H8.51562ZM10.1008 9.49459H3.59416C3.52996 9.49459 3.46908 9.52226 3.42591 9.56986L2.9787 10.0691C2.94771 10.1034 2.97206 10.1576 3.01855 10.1576H10.6764C10.7217 10.1576 10.7461 10.1034 10.7162 10.0691L10.2679 9.56986C10.2258 9.52226 10.1639 9.49459 10.1008 9.49459ZM9.68455 8.77397H9.28826C9.22295 8.77397 9.16982 8.72083 9.16982 8.65552V6.88663C9.16982 6.82132 9.22295 6.76819 9.28826 6.76819H9.68455C9.74986 6.76819 9.80299 6.82132 9.80299 6.88663V8.65663C9.80299 8.72194 9.74986 8.77397 9.68455 8.77397ZM9.8207 6.63647H9.15321C9.1034 6.63647 9.06023 6.60326 9.04584 6.55566L8.99492 6.37966C8.97389 6.30881 9.02813 6.23797 9.1023 6.23797H9.87162C9.94578 6.23797 9.99892 6.30881 9.97899 6.37966L9.92807 6.55566C9.91368 6.60326 9.86941 6.63647 9.8207 6.63647ZM9.15211 8.9068H9.81959C9.8694 8.9068 9.91258 8.94001 9.92697 8.98761L9.97788 9.16361C9.99892 9.23445 9.94468 9.3053 9.87051 9.3053H9.10119C9.02702 9.3053 8.97389 9.23445 8.99382 9.16361L9.04473 8.98761C9.05912 8.9389 9.1034 8.9068 9.15211 8.9068ZM4.53727 8.77397H4.14099C4.07568 8.77397 4.02255 8.72083 4.02255 8.65552V6.88663C4.02255 6.82132 4.07568 6.76819 4.14099 6.76819H4.53727C4.60258 6.76819 4.65572 6.82132 4.65572 6.88663V8.65663C4.65461 8.72194 4.60148 8.77397 4.53727 8.77397ZM4.67232 6.63647H4.00484C3.95502 6.63647 3.91185 6.60326 3.89746 6.55566L3.84654 6.37966C3.82551 6.30881 3.87975 6.23797 3.95392 6.23797H4.72324C4.7974 6.23797 4.85054 6.30881 4.83061 6.37966L4.77969 6.55566C4.7653 6.60326 4.72213 6.63647 4.67232 6.63647ZM4.00484 8.9068H4.67232C4.72213 8.9068 4.7653 8.94001 4.77969 8.98761L4.83061 9.16361C4.85164 9.23445 4.7974 9.3053 4.72324 9.3053H3.95392C3.87975 9.3053 3.82662 9.23445 3.84654 9.16361L3.89746 8.98761C3.91185 8.9389 3.95502 8.9068 4.00484 8.9068ZM6.25303 8.77397H5.85675C5.79144 8.77397 5.7383 8.72083 5.7383 8.65552V6.88663C5.7383 6.82132 5.79144 6.76819 5.85675 6.76819H6.25303C6.31834 6.76819 6.37147 6.82132 6.37147 6.88663V8.65663C6.37118 8.68785 6.35857 8.7177 6.33639 8.73967C6.31421 8.76164 6.28425 8.77397 6.25303 8.77397ZM6.38808 6.63647H5.72059C5.67078 6.63647 5.62761 6.60326 5.61322 6.55566L5.5623 6.37966C5.54127 6.30881 5.59551 6.23797 5.66967 6.23797H6.439C6.51316 6.23797 6.5663 6.30881 6.54637 6.37966L6.49545 6.55566C6.48106 6.60326 6.43789 6.63647 6.38808 6.63647ZM5.72059 8.9068H6.38808C6.43789 8.9068 6.48106 8.94001 6.49545 8.98761L6.54637 9.16361C6.5674 9.23445 6.51316 9.3053 6.439 9.3053H5.66967C5.59551 9.3053 5.54238 9.23445 5.5623 9.16361L5.61322 8.98761C5.62761 8.9389 5.67078 8.9068 5.72059 8.9068ZM7.96879 8.77397H7.5725C7.50719 8.77397 7.45406 8.72083 7.45406 8.65552V6.88663C7.45406 6.82132 7.50719 6.76819 7.5725 6.76819H7.96879C8.0341 6.76819 8.08723 6.82132 8.08723 6.88663V8.65663C8.08694 8.68785 8.07433 8.7177 8.05215 8.73967C8.02997 8.76164 8.00001 8.77397 7.96879 8.77397ZM8.10384 6.63647H7.43635C7.38654 6.63647 7.34337 6.60326 7.32898 6.55566L7.27806 6.37966C7.25703 6.30881 7.31127 6.23797 7.38543 6.23797H8.15475C8.22892 6.23797 8.28205 6.30881 8.26213 6.37966L8.21121 6.55566C8.19682 6.60326 8.15365 6.63647 8.10384 6.63647ZM7.43635 8.9068H8.10384C8.15365 8.9068 8.19682 8.94001 8.21121 8.98761L8.26213 9.16361C8.28316 9.23445 8.22892 9.3053 8.15475 9.3053H7.38543C7.31127 9.3053 7.25813 9.23445 7.27806 9.16361L7.32898 8.98761C7.34337 8.9389 7.38764 8.9068 7.43635 8.9068Z" fill="#FFF176"/>
</svg>