<svg width="11" height="16" viewBox="0 0 11 16" fill="none" xmlns="http://www.w3.org/2000/svg">
<path d="M3.93258 3.1423C3.72416 3.1423 3.52427 3.22509 3.37689 3.37247C3.22951 3.51985 3.14671 3.71974 3.14671 3.92817L3.14671 13.0364L1.34706 11.2289C1.19908 11.0809 0.998369 10.9978 0.789089 10.9978C0.57981 10.9978 0.379102 11.0809 0.231119 11.2289C0.083136 11.3769 1.55925e-09 11.5776 0 11.7869C-1.55925e-09 11.9962 0.083136 12.1969 0.231119 12.3449L3.37461 15.4884C3.48513 15.5974 3.62546 15.6713 3.77791 15.7007C3.93036 15.73 4.0881 15.7136 4.23122 15.6534C4.37473 15.5944 4.49758 15.4943 4.58429 15.3657C4.671 15.237 4.71768 15.0855 4.71846 14.9304L4.71846 3.92817C4.71846 3.71974 4.63566 3.51985 4.48828 3.37247C4.3409 3.22509 4.14101 3.1423 3.93258 3.1423ZM6.77745 0.0616722C6.63393 0.120628 6.51108 0.220747 6.42437 0.34941C6.33766 0.478074 6.29098 0.629524 6.2902 0.784676L6.2902 11.7869C6.2902 11.9953 6.373 12.1952 6.52038 12.3426C6.66776 12.49 6.86765 12.5728 7.07608 12.5728C7.2845 12.5728 7.48439 12.49 7.63177 12.3426C7.77915 12.1952 7.86195 11.9953 7.86195 11.7869L7.86195 2.67863L9.6616 4.48614C9.73466 4.5598 9.82158 4.61826 9.91734 4.65816C10.0131 4.69806 10.1158 4.7186 10.2196 4.7186C10.3233 4.7186 10.426 4.69806 10.5218 4.65816C10.6176 4.61826 10.7045 4.5598 10.7775 4.48614C10.8512 4.41308 10.9097 4.32616 10.9496 4.2304C10.9895 4.13463 11.01 4.03191 11.01 3.92817C11.01 3.82442 10.9895 3.72171 10.9496 3.62594C10.9097 3.53017 10.8512 3.44326 10.7775 3.3702L7.63405 0.226707C7.52353 0.117661 7.3832 0.0437908 7.23075 0.0144196C7.0783 -0.0149517 6.92056 0.00149059 6.77745 0.0616722Z" fill="#AC2323"/>
</svg>
