<svg xmlns="http://www.w3.org/2000/svg" width="15" height="14" viewBox="0 0 15 14" fill="none">
<path d="M12.1239 12.7003H2.39049C2.02171 12.7003 1.66803 12.5538 1.40727 12.293C1.1465 12.0323 1 11.6786 1 11.3098V5.0526C1 4.68382 1.1465 4.33014 1.40727 4.06937C1.66803 3.80861 2.02171 3.66211 2.39049 3.66211H12.1239C12.4927 3.66211 12.8464 3.80861 13.1072 4.06937C13.3679 4.33014 13.5144 4.68382 13.5144 5.0526V11.3098C13.5144 11.6786 13.3679 12.0323 13.1072 12.293C12.8464 12.5538 12.4927 12.7003 12.1239 12.7003Z" stroke="#767C8F" stroke-width="1.3"/>
<path d="M10.3857 8.52923C10.2935 8.52923 10.2051 8.49261 10.1399 8.42741C10.0747 8.36222 10.0381 8.2738 10.0381 8.18161C10.0381 8.08941 10.0747 8.00099 10.1399 7.9358C10.2051 7.87061 10.2935 7.83398 10.3857 7.83398C10.4779 7.83398 10.5663 7.87061 10.6315 7.9358C10.6967 8.00099 10.7333 8.08941 10.7333 8.18161C10.7333 8.2738 10.6967 8.36222 10.6315 8.42741C10.5663 8.49261 10.4779 8.52923 10.3857 8.52923Z" fill="black" stroke="#767C8F" stroke-width="1.3" stroke-linecap="round" stroke-linejoin="round"/>
<path d="M11.4287 3.66214V2.69089C11.4286 2.47779 11.3796 2.26757 11.2854 2.07644C11.1911 1.88531 11.0543 1.7184 10.8853 1.58858C10.7163 1.45877 10.5197 1.36953 10.3108 1.32776C10.1018 1.28599 9.88605 1.2928 9.68014 1.34767L2.03244 3.38683C1.7363 3.46574 1.47453 3.64029 1.28782 3.88332C1.10112 4.12635 0.999932 4.42426 1 4.73074V5.05263" stroke="#767C8F" stroke-width="1.3"/>
</svg>