<svg xmlns="http://www.w3.org/2000/svg" width="24" height="15" viewBox="0 0 24 15" fill="none">
<mask id="path-1-inside-1_952_3769" fill="white">
<path d="M0 8.61906L5.59 14.2091L7 12.7891L1.42 7.20906M21.83 0.789062L11.25 11.3791L7.09 7.20906L5.66 8.61906L11.25 14.2091L23.25 2.20906M17.59 2.20906L16.18 0.789062L9.83 7.13906L11.25 8.54906L17.59 2.20906Z"/>
</mask>
<path d="M0 8.61906L5.59 14.2091L7 12.7891L1.42 7.20906M21.83 0.789062L11.25 11.3791L7.09 7.20906L5.66 8.61906L11.25 14.2091L23.25 2.20906M17.59 2.20906L16.18 0.789062L9.83 7.13906L11.25 8.54906L17.59 2.20906Z" fill="black"/>
<path d="M5.59 14.2091L4.88289 14.9162L5.5925 15.6258L6.2996 14.9137L5.59 14.2091ZM7 12.7891L7.7096 13.4937L8.41172 12.7866L7.70711 12.082L7 12.7891ZM11.25 11.3791L10.542 12.0853L11.2495 12.7945L11.9574 12.0858L11.25 11.3791ZM7.09 7.20906L7.79796 6.50281L7.09581 5.79897L6.38789 6.49699L7.09 7.20906ZM5.66 8.61906L4.95789 7.90699L4.24079 8.61407L4.95289 9.32617L5.66 8.61906ZM11.25 14.2091L10.5429 14.9162L11.25 15.6233L11.9571 14.9162L11.25 14.2091ZM17.59 2.20906L18.2971 2.91617L19.0017 2.21156L18.2996 1.50446L17.59 2.20906ZM16.18 0.789062L16.8896 0.0844588L16.1825 -0.627654L15.4729 0.0819557L16.18 0.789062ZM9.83 7.13906L9.12289 6.43196L8.41328 7.14157L9.1254 7.84866L9.83 7.13906ZM11.25 8.54906L10.5454 9.25866L11.2525 9.96078L11.9571 9.25617L11.25 8.54906ZM-0.707107 9.32617L4.88289 14.9162L6.29711 13.502L0.707107 7.91196L-0.707107 9.32617ZM6.2996 14.9137L7.7096 13.4937L6.2904 12.0845L4.8804 13.5045L6.2996 14.9137ZM7.70711 12.082L2.12711 6.50196L0.712893 7.91617L6.29289 13.4962L7.70711 12.082ZM21.1226 0.0822898L10.5426 10.6723L11.9574 12.0858L22.5374 1.49584L21.1226 0.0822898ZM11.958 10.6728L7.79796 6.50281L6.38204 7.91532L10.542 12.0853L11.958 10.6728ZM6.38789 6.49699L4.95789 7.90699L6.36211 9.33113L7.79211 7.92113L6.38789 6.49699ZM4.95289 9.32617L10.5429 14.9162L11.9571 13.502L6.36711 7.91196L4.95289 9.32617ZM11.9571 14.9162L23.9571 2.91617L22.5429 1.50196L10.5429 13.502L11.9571 14.9162ZM18.2996 1.50446L16.8896 0.0844588L15.4704 1.49367L16.8804 2.91367L18.2996 1.50446ZM15.4729 0.0819557L9.12289 6.43196L10.5371 7.84617L16.8871 1.49617L15.4729 0.0819557ZM9.1254 7.84866L10.5454 9.25866L11.9546 7.83946L10.5346 6.42946L9.1254 7.84866ZM11.9571 9.25617L18.2971 2.91617L16.8829 1.50196L10.5429 7.84196L11.9571 9.25617Z" fill="url(#paint0_angular_952_3769)" mask="url(#path-1-inside-1_952_3769)"/>
<defs>
<radialGradient id="paint0_angular_952_3769" cx="0" cy="0" r="1" gradientUnits="userSpaceOnUse" gradientTransform="translate(11.625 7.49906) rotate(90) scale(6.71 11.625)">
<stop offset="0.10012" stop-color="#0047FF"/>
<stop offset="0.113784" stop-color="#2A70FA" stop-opacity="0.66"/>
</radialGradient>
</defs>
</svg>