<svg width="204" height="108" viewBox="0 0 204 108" fill="none" xmlns="http://www.w3.org/2000/svg">
<path d="M16.768 37.756C15.712 37.756 14.68 37.636 13.672 37.396C12.664 37.156 11.752 36.784 10.936 36.28C10.144 35.776 9.508 35.14 9.028 34.372C8.572 33.58 8.344 32.644 8.344 31.564C8.344 30.652 8.548 29.764 8.956 28.9C9.388 28.012 10 27.208 10.792 26.488C11.608 25.768 12.592 25.204 13.744 24.796C13.024 24.316 12.472 23.704 12.088 22.96C11.704 22.216 11.512 21.424 11.512 20.584C11.512 19.768 11.692 18.952 12.052 18.136C12.436 17.296 13 16.552 13.744 15.904C14.512 15.232 15.46 14.704 16.588 14.32L19.792 16.408C19.192 16.936 18.736 17.572 18.424 18.316C18.136 19.036 17.992 19.78 17.992 20.548C17.992 20.98 18.04 21.424 18.136 21.88C18.256 22.312 18.412 22.708 18.604 23.068C19.036 23.068 19.468 23.068 19.9 23.068C20.356 23.068 20.788 23.08 21.196 23.104C21.604 23.104 21.952 23.104 22.24 23.104C22.696 23.104 23.104 23.104 23.464 23.104C23.824 23.104 24.124 23.092 24.364 23.068C24.388 23.212 24.4 23.368 24.4 23.536C24.424 23.68 24.436 23.812 24.436 23.932C24.436 25.06 24.1 25.876 23.428 26.38C22.78 26.86 21.892 27.1 20.764 27.1C20.284 27.1 19.78 27.064 19.252 26.992C18.724 26.896 18.148 26.752 17.524 26.56C17.044 26.968 16.684 27.46 16.444 28.036C16.204 28.588 16.084 29.152 16.084 29.728C16.084 30.496 16.348 31.18 16.876 31.78C17.404 32.38 18.232 32.68 19.36 32.68C20.224 32.68 21.076 32.488 21.916 32.104C22.78 31.72 23.584 31.156 24.328 30.412C24.688 30.58 24.976 30.844 25.192 31.204C25.432 31.54 25.552 31.948 25.552 32.428C25.552 33.268 25.3 34.024 24.796 34.696C24.316 35.344 23.644 35.896 22.78 36.352C21.94 36.808 21.004 37.156 19.972 37.396C18.94 37.636 17.872 37.756 16.768 37.756ZM6.976 24.04C5.896 24.04 4.984 23.8 4.24 23.32C3.52 22.84 2.968 22.216 2.584 21.448C2.224 20.68 2.044 19.852 2.044 18.964C2.044 18.1 2.212 17.248 2.548 16.408C2.884 15.544 3.4 14.752 4.096 14.032C4.816 13.312 5.728 12.736 6.832 12.304C7.936 11.872 9.256 11.656 10.792 11.656C12.256 11.656 13.636 11.764 14.932 11.98C16.252 12.172 17.488 12.376 18.64 12.592C19.816 12.808 20.908 12.916 21.916 12.916C22.828 12.916 23.692 12.784 24.508 12.52C25.324 12.256 26.092 11.776 26.812 11.08C27.244 11.44 27.568 11.872 27.784 12.376C28.024 12.88 28.144 13.42 28.144 13.996C28.144 14.62 27.976 15.22 27.64 15.796C27.328 16.372 26.836 16.852 26.164 17.236C25.516 17.596 24.664 17.776 23.608 17.776C22.576 17.776 21.532 17.644 20.476 17.38C19.444 17.092 18.436 16.756 17.452 16.372C16.492 15.964 15.604 15.556 14.788 15.148L14.68 14.932C14.08 14.668 13.6 14.5 13.24 14.428C12.904 14.332 12.556 14.284 12.196 14.284C11.116 14.284 10.252 14.692 9.604 15.508C8.956 16.3 8.632 17.392 8.632 18.784C8.632 19.48 8.692 20.14 8.812 20.764C8.956 21.388 9.22 22.108 9.604 22.924C9.244 23.308 8.812 23.596 8.308 23.788C7.804 23.956 7.36 24.04 6.976 24.04ZM35.8038 37.684C35.2998 37.684 34.8678 37.648 34.5078 37.576C34.1478 37.528 33.6918 37.42 33.1398 37.252L26.8398 36.712L30.2958 18.64L36.3078 17.92L35.8398 20.692C36.4398 19.924 37.1958 19.264 38.1078 18.712C39.0198 18.16 40.0998 17.884 41.3478 17.884C42.7638 17.884 43.9038 18.172 44.7678 18.748C45.6558 19.324 46.2918 20.14 46.6758 21.196C47.0838 22.252 47.2878 23.524 47.2878 25.012C47.2878 26.812 47.0238 28.492 46.4958 30.052C45.9918 31.588 45.2358 32.932 44.2278 34.084C43.2438 35.212 42.0438 36.1 40.6278 36.748C39.2118 37.372 37.6038 37.684 35.8038 37.684ZM29.6838 44.2C28.6758 44.2 27.8718 43.936 27.2718 43.408C26.6958 42.88 26.4078 42.004 26.4078 40.78C26.4078 40.516 26.4198 40.204 26.4438 39.844C26.4678 39.508 26.5038 39.136 26.5518 38.728C26.5998 38.32 26.6598 37.9 26.7318 37.468C26.7798 37.036 26.8518 36.592 26.9478 36.136L33.8958 36.928C33.7758 37.552 33.6438 38.236 33.4998 38.98C33.3798 39.748 33.3198 40.504 33.3198 41.248C33.3198 41.584 33.3318 41.908 33.3558 42.22C33.4038 42.532 33.4638 42.832 33.5358 43.12C32.9838 43.456 32.3598 43.72 31.6638 43.912C30.9918 44.104 30.3318 44.2 29.6838 44.2ZM36.1278 35.56C36.8238 35.56 37.4238 35.272 37.9278 34.696C38.4318 34.096 38.8518 33.304 39.1878 32.32C39.5238 31.336 39.7878 30.28 39.9798 29.152C40.1958 28 40.3398 26.872 40.4118 25.768C40.5078 24.664 40.5558 23.692 40.5558 22.852C40.5558 22.228 40.4718 21.676 40.3038 21.196C40.1358 20.692 39.7398 20.44 39.1158 20.44C38.4918 20.44 37.9638 20.68 37.5318 21.16C37.1238 21.64 36.7998 22.228 36.5598 22.924C36.3198 23.62 36.1398 24.292 36.0198 24.94L34.2558 34.876C34.5198 35.092 34.8198 35.26 35.1558 35.38C35.5158 35.5 35.8398 35.56 36.1278 35.56ZM52.7618 37.72C51.5618 37.72 50.5778 37.42 49.8098 36.82C49.0418 36.196 48.6578 35.26 48.6578 34.012C48.6578 33.556 48.7058 32.956 48.8018 32.212C48.8978 31.468 49.0178 30.688 49.1618 29.872C49.3298 29.032 49.4858 28.24 49.6298 27.496C49.7738 26.752 49.8938 26.152 49.9898 25.696L51.3578 18.64L58.5938 17.92L55.9298 31.636C55.9058 31.828 55.8698 32.068 55.8218 32.356C55.7738 32.644 55.7498 32.908 55.7498 33.148C55.7498 33.604 55.8818 34.024 56.1458 34.408C56.4098 34.792 56.8418 35.008 57.4418 35.056C57.1538 35.968 56.5538 36.64 55.6418 37.072C54.7298 37.504 53.7698 37.72 52.7618 37.72ZM56.0018 15.76C54.8978 15.76 53.9738 15.52 53.2298 15.04C52.5098 14.56 52.1498 13.864 52.1498 12.952C52.1498 12.016 52.5338 11.296 53.3018 10.792C54.0938 10.264 55.0418 10 56.1458 10C57.2498 10 58.1498 10.252 58.8458 10.756C59.5418 11.26 59.8898 11.968 59.8898 12.88C59.8898 13.816 59.5178 14.536 58.7738 15.04C58.0298 15.52 57.1058 15.76 56.0018 15.76ZM67.1773 37.72C64.8973 37.72 63.0733 37.12 61.7053 35.92C60.3613 34.696 59.6893 32.764 59.6893 30.124C59.6893 28.396 59.9533 26.8 60.4813 25.336C61.0333 23.848 61.8253 22.552 62.8573 21.448C63.8893 20.32 65.1373 19.456 66.6013 18.856C68.0653 18.232 69.6973 17.92 71.4973 17.92C72.6013 17.92 73.5973 18.052 74.4853 18.316C75.3733 18.556 76.0693 18.964 76.5733 19.54C77.1013 20.092 77.3653 20.848 77.3653 21.808C77.3653 23.08 76.9333 24.004 76.0693 24.58C75.2293 25.132 74.2333 25.408 73.0813 25.408C72.8653 25.408 72.5893 25.384 72.2533 25.336C71.9413 25.288 71.6773 25.216 71.4613 25.12C71.6533 24.64 71.8093 24.052 71.9293 23.356C72.0493 22.66 72.1093 22.048 72.1093 21.52C72.1093 21.112 72.0373 20.764 71.8933 20.476C71.7733 20.188 71.4973 20.044 71.0653 20.044C70.4893 20.044 69.9613 20.284 69.4813 20.764C69.0013 21.244 68.5693 21.868 68.1853 22.636C67.8253 23.404 67.5133 24.232 67.2493 25.12C67.0093 26.008 66.8173 26.884 66.6733 27.748C66.5533 28.588 66.4933 29.308 66.4933 29.908C66.4933 30.916 66.6973 31.72 67.1053 32.32C67.5133 32.896 68.2333 33.184 69.2653 33.184C70.2013 33.184 71.1013 32.932 71.9653 32.428C72.8293 31.924 73.4533 31.216 73.8373 30.304C74.3173 30.544 74.6653 30.844 74.8813 31.204C75.0973 31.54 75.2053 31.972 75.2053 32.5C75.2053 33.604 74.8093 34.552 74.0173 35.344C73.2493 36.112 72.2533 36.7 71.0293 37.108C69.8293 37.516 68.5453 37.72 67.1773 37.72ZM88.6088 24.04C87.5048 24.04 86.5808 23.8 85.8368 23.32C85.1168 22.84 84.5768 22.216 84.2168 21.448C83.8568 20.68 83.6768 19.852 83.6768 18.964C83.7008 17.812 84.0128 16.684 84.6128 15.58C85.2128 14.452 86.1488 13.516 87.4208 12.772C88.7168 12.028 90.3848 11.656 92.4248 11.656C93.9128 11.656 95.2928 11.764 96.5648 11.98C97.8608 12.172 99.0968 12.376 100.273 12.592C101.449 12.808 102.613 12.916 103.765 12.916C104.797 12.916 105.745 12.784 106.609 12.52C107.497 12.256 108.301 11.776 109.021 11.08C109.525 11.392 109.897 11.836 110.137 12.412C110.401 12.988 110.533 13.612 110.533 14.284C110.533 15.004 110.365 15.712 110.029 16.408C109.717 17.104 109.225 17.68 108.553 18.136C107.881 18.592 107.017 18.82 105.961 18.82C104.545 18.82 103.273 18.604 102.145 18.172C101.041 17.74 100.045 17.236 99.1568 16.66C98.2688 16.084 97.4768 15.556 96.7808 15.076L96.7088 14.716C96.2048 14.524 95.7608 14.416 95.3768 14.392C95.0168 14.344 94.6328 14.32 94.2248 14.32C93.0488 14.32 92.0888 14.692 91.3448 15.436C90.6248 16.18 90.2648 17.296 90.2648 18.784C90.2648 19.48 90.3248 20.14 90.4448 20.764C90.5888 21.388 90.8528 22.108 91.2368 22.924C90.8768 23.332 90.4448 23.62 89.9408 23.788C89.4368 23.956 88.9928 24.04 88.6088 24.04ZM93.2168 37.792C92.3048 37.792 91.4768 37.624 90.7328 37.288C90.0128 36.952 89.6168 36.496 89.5448 35.92C89.9288 35.752 90.2168 35.524 90.4088 35.236C90.6248 34.924 90.7928 34.516 90.9128 34.012C91.0568 33.508 91.2008 32.836 91.3448 31.996L93.5048 20.728C93.9368 18.448 94.8608 16.708 96.2768 15.508C97.6928 14.284 99.7328 13.528 102.397 13.24L98.9408 31.852C98.7008 33.148 98.3768 34.24 97.9688 35.128C97.5608 35.992 96.9848 36.652 96.2408 37.108C95.4968 37.564 94.4888 37.792 93.2168 37.792ZM110.274 37.72C108.93 37.72 107.814 37.432 106.926 36.856C106.062 36.256 105.414 35.428 104.982 34.372C104.574 33.316 104.37 32.068 104.37 30.628C104.37 28.804 104.646 27.124 105.198 25.588C105.774 24.052 106.566 22.708 107.574 21.556C108.582 20.404 109.758 19.516 111.102 18.892C112.446 18.244 113.886 17.92 115.422 17.92C116.67 17.92 117.954 18.148 119.274 18.604L124.926 17.92L122.334 31.636C122.31 31.828 122.274 32.068 122.226 32.356C122.178 32.644 122.154 32.908 122.154 33.148C122.154 33.604 122.286 34.024 122.55 34.408C122.814 34.792 123.246 35.008 123.846 35.056C123.654 35.656 123.306 36.16 122.802 36.568C122.322 36.952 121.758 37.24 121.11 37.432C120.486 37.624 119.874 37.72 119.274 37.72C118.482 37.72 117.75 37.552 117.078 37.216C116.406 36.88 115.938 36.364 115.674 35.668C115.05 36.292 114.282 36.784 113.37 37.144C112.482 37.528 111.45 37.72 110.274 37.72ZM112.542 35.416C113.166 35.416 113.682 35.176 114.09 34.696C114.522 34.192 114.846 33.592 115.062 32.896C115.302 32.2 115.47 31.54 115.566 30.916L117.366 20.728C117.054 20.512 116.73 20.356 116.394 20.26C116.082 20.14 115.794 20.08 115.53 20.08C114.858 20.08 114.27 20.38 113.766 20.98C113.262 21.556 112.83 22.336 112.47 23.32C112.134 24.304 111.858 25.372 111.642 26.524C111.45 27.652 111.306 28.768 111.21 29.872C111.138 30.976 111.102 31.948 111.102 32.788C111.102 33.412 111.186 34.012 111.354 34.588C111.522 35.14 111.918 35.416 112.542 35.416ZM132.761 37.792C131.801 37.792 130.841 37.72 129.881 37.576C128.945 37.456 128.081 37.24 127.289 36.928C126.521 36.616 125.909 36.208 125.453 35.704C124.997 35.176 124.769 34.528 124.769 33.76C124.793 33.064 124.973 32.488 125.309 32.032C125.621 31.552 126.077 31.192 126.677 30.952C127.277 30.712 127.961 30.592 128.729 30.592C129.209 30.592 129.701 30.652 130.205 30.772C130.733 30.868 131.165 31.024 131.501 31.24C131.381 31.696 131.297 32.116 131.249 32.5C131.225 32.86 131.213 33.28 131.213 33.76C131.237 34.36 131.441 34.852 131.825 35.236C132.233 35.62 132.773 35.812 133.445 35.812C134.165 35.812 134.741 35.644 135.173 35.308C135.605 34.972 135.821 34.54 135.821 34.012C135.845 33.388 135.581 32.812 135.029 32.284C134.501 31.756 133.829 31.24 133.013 30.736C132.221 30.232 131.405 29.704 130.565 29.152C129.869 28.672 129.233 28.168 128.657 27.64C128.105 27.088 127.661 26.488 127.325 25.84C126.989 25.168 126.821 24.424 126.821 23.608C126.845 22.648 127.133 21.808 127.685 21.088C128.237 20.368 128.969 19.78 129.881 19.324C130.793 18.844 131.801 18.496 132.905 18.28C134.009 18.04 135.125 17.92 136.253 17.92C137.381 17.92 138.485 18.052 139.565 18.316C140.669 18.58 141.569 19.012 142.265 19.612C142.961 20.188 143.309 20.98 143.309 21.988C143.285 23.02 142.937 23.788 142.265 24.292C141.593 24.796 140.717 25.048 139.637 25.048C139.181 25.048 138.701 24.988 138.197 24.868C137.693 24.748 137.249 24.58 136.865 24.364C136.961 24.076 137.045 23.764 137.117 23.428C137.189 23.092 137.237 22.744 137.261 22.384C137.285 21.616 137.117 21.004 136.757 20.548C136.397 20.068 135.869 19.816 135.173 19.792C134.645 19.792 134.177 19.948 133.769 20.26C133.361 20.548 133.145 20.992 133.121 21.592C133.097 22.144 133.289 22.672 133.697 23.176C134.129 23.68 134.681 24.172 135.353 24.652C136.049 25.108 136.781 25.564 137.549 26.02C138.389 26.524 139.145 27.052 139.817 27.604C140.489 28.132 141.017 28.732 141.401 29.404C141.809 30.052 142.013 30.832 142.013 31.744C141.989 32.896 141.617 33.928 140.897 34.84C140.177 35.752 139.133 36.472 137.765 37C136.397 37.504 134.729 37.768 132.761 37.792ZM148.749 37.72C147.573 37.72 146.565 37.408 145.725 36.784C144.885 36.16 144.465 35.236 144.465 34.012C144.465 33.532 144.513 32.932 144.609 32.212C144.729 31.468 144.861 30.676 145.005 29.836C145.149 28.996 145.293 28.204 145.437 27.46C145.605 26.692 145.725 26.08 145.797 25.624L146.841 20.26H144.717L144.861 19.18C146.301 18.748 147.729 18.16 149.145 17.416C150.561 16.672 151.953 15.772 153.321 14.716H155.049L154.185 18.64H156.993L156.669 20.26H153.897L151.809 31.276C151.761 31.588 151.713 31.9 151.665 32.212C151.617 32.5 151.593 32.788 151.593 33.076C151.593 33.964 151.809 34.528 152.241 34.768C152.673 35.008 153.249 35.044 153.969 34.876C153.633 35.668 153.177 36.28 152.601 36.712C152.025 37.12 151.401 37.384 150.729 37.504C150.081 37.648 149.421 37.72 148.749 37.72ZM163.369 37.72C161.881 37.72 160.561 37.456 159.409 36.928C158.257 36.4 157.345 35.584 156.673 34.48C156.025 33.376 155.701 31.948 155.701 30.196C155.701 28.636 155.929 27.124 156.385 25.66C156.841 24.196 157.549 22.888 158.509 21.736C159.469 20.56 160.681 19.636 162.145 18.964C163.633 18.268 165.397 17.92 167.437 17.92C168.493 17.92 169.477 18.04 170.389 18.28C171.325 18.52 172.081 18.976 172.657 19.648C173.257 20.296 173.557 21.232 173.557 22.456C173.557 23.608 173.221 24.628 172.549 25.516C171.901 26.38 170.893 27.064 169.525 27.568C168.181 28.072 166.477 28.384 164.413 28.504C164.125 28.528 163.825 28.54 163.513 28.54C163.201 28.54 162.889 28.54 162.577 28.54C162.553 28.804 162.529 29.08 162.505 29.368C162.481 29.632 162.469 29.86 162.469 30.052C162.469 31.06 162.685 31.84 163.117 32.392C163.573 32.92 164.341 33.184 165.421 33.184C166.333 33.184 167.257 32.992 168.193 32.608C169.153 32.2 169.861 31.636 170.317 30.916C170.653 31.108 170.881 31.348 171.001 31.636C171.145 31.924 171.217 32.26 171.217 32.644C171.217 33.676 170.845 34.576 170.101 35.344C169.357 36.112 168.385 36.7 167.185 37.108C166.009 37.516 164.737 37.72 163.369 37.72ZM162.793 26.992C163.633 26.992 164.377 26.86 165.025 26.596C165.673 26.308 166.213 25.936 166.645 25.48C167.101 25.024 167.437 24.472 167.653 23.824C167.893 23.176 168.013 22.468 168.013 21.7C167.989 21.124 167.881 20.656 167.689 20.296C167.521 19.936 167.185 19.756 166.681 19.756C166.273 19.756 165.877 19.9 165.493 20.188C165.109 20.452 164.749 20.872 164.413 21.448C164.077 22.024 163.765 22.78 163.477 23.716C163.213 24.628 162.985 25.72 162.793 26.992ZM180.714 37.792C179.754 37.792 178.794 37.72 177.834 37.576C176.898 37.456 176.034 37.24 175.242 36.928C174.474 36.616 173.862 36.208 173.406 35.704C172.95 35.176 172.722 34.528 172.722 33.76C172.746 33.064 172.926 32.488 173.262 32.032C173.574 31.552 174.03 31.192 174.63 30.952C175.23 30.712 175.914 30.592 176.682 30.592C177.162 30.592 177.654 30.652 178.158 30.772C178.686 30.868 179.118 31.024 179.454 31.24C179.334 31.696 179.25 32.116 179.202 32.5C179.178 32.86 179.166 33.28 179.166 33.76C179.19 34.36 179.394 34.852 179.778 35.236C180.186 35.62 180.726 35.812 181.398 35.812C182.118 35.812 182.694 35.644 183.126 35.308C183.558 34.972 183.774 34.54 183.774 34.012C183.798 33.388 183.534 32.812 182.982 32.284C182.454 31.756 181.782 31.24 180.966 30.736C180.174 30.232 179.358 29.704 178.518 29.152C177.822 28.672 177.186 28.168 176.61 27.64C176.058 27.088 175.614 26.488 175.278 25.84C174.942 25.168 174.774 24.424 174.774 23.608C174.798 22.648 175.086 21.808 175.638 21.088C176.19 20.368 176.922 19.78 177.834 19.324C178.746 18.844 179.754 18.496 180.858 18.28C181.962 18.04 183.078 17.92 184.206 17.92C185.334 17.92 186.438 18.052 187.518 18.316C188.622 18.58 189.522 19.012 190.218 19.612C190.914 20.188 191.262 20.98 191.262 21.988C191.238 23.02 190.89 23.788 190.218 24.292C189.546 24.796 188.67 25.048 187.59 25.048C187.134 25.048 186.654 24.988 186.15 24.868C185.646 24.748 185.202 24.58 184.818 24.364C184.914 24.076 184.998 23.764 185.07 23.428C185.142 23.092 185.19 22.744 185.214 22.384C185.238 21.616 185.07 21.004 184.71 20.548C184.35 20.068 183.822 19.816 183.126 19.792C182.598 19.792 182.13 19.948 181.722 20.26C181.314 20.548 181.098 20.992 181.074 21.592C181.05 22.144 181.242 22.672 181.65 23.176C182.082 23.68 182.634 24.172 183.306 24.652C184.002 25.108 184.734 25.564 185.502 26.02C186.342 26.524 187.098 27.052 187.77 27.604C188.442 28.132 188.97 28.732 189.354 29.404C189.762 30.052 189.966 30.832 189.966 31.744C189.942 32.896 189.57 33.928 188.85 34.84C188.13 35.752 187.086 36.472 185.718 37C184.35 37.504 182.682 37.768 180.714 37.792ZM190.69 41.86C190.33 41.86 190.03 41.836 189.79 41.788C189.55 41.74 189.322 41.692 189.106 41.644C189.922 40.78 190.534 39.94 190.942 39.124C191.326 38.332 191.578 37.588 191.698 36.892C191.818 36.196 191.878 35.584 191.878 35.056C191.878 34.552 191.842 34.12 191.77 33.76C191.698 33.4 191.602 33.04 191.482 32.68C191.77 32.464 192.202 32.296 192.778 32.176C193.354 32.056 193.894 31.996 194.398 31.996C195.382 31.996 196.186 32.284 196.81 32.86C197.434 33.412 197.746 34.24 197.746 35.344C197.746 36.496 197.422 37.564 196.774 38.548C196.126 39.532 195.262 40.324 194.182 40.924C193.102 41.548 191.938 41.86 190.69 41.86ZM23.932 85.76C23.164 85.76 22.468 85.592 21.844 85.256C21.244 84.92 20.716 84.332 20.26 83.492C19.804 82.652 19.444 81.488 19.18 80C18.916 78.512 18.736 76.592 18.64 74.24H13.06C12.076 75.92 11.14 77.252 10.252 78.236C9.388 79.196 8.584 79.88 7.84 80.288C7.096 80.696 6.4 80.9 5.752 80.9C4.84 80.9 4.144 80.66 3.664 80.18C3.184 79.7 2.956 79.16 2.98 78.56C3.004 78.368 3.04 78.2 3.088 78.056C3.136 77.888 3.208 77.72 3.304 77.552C4.24 77.528 5.152 77.216 6.04 76.616C6.928 75.992 7.792 75.176 8.632 74.168C9.496 73.136 10.312 71.972 11.08 70.676C11.848 69.38 12.58 68.024 13.276 66.608C13.996 65.168 14.656 63.728 15.256 62.288C15.88 60.848 16.444 59.492 16.948 58.22L16.768 57.896C16.456 57.776 16.144 57.692 15.832 57.644C15.52 57.596 15.208 57.572 14.896 57.572C13.672 57.572 12.628 57.992 11.764 58.832C10.924 59.672 10.468 60.836 10.396 62.324C10.372 63.02 10.396 63.68 10.468 64.304C10.564 64.928 10.792 65.648 11.152 66.464C10.792 66.872 10.348 67.16 9.82 67.328C9.292 67.496 8.836 67.58 8.452 67.58C7.348 67.58 6.436 67.34 5.716 66.86C5.02 66.38 4.516 65.756 4.204 64.988C3.916 64.22 3.784 63.392 3.808 62.504C3.88 61.352 4.24 60.224 4.888 59.12C5.56 57.992 6.556 57.056 7.876 56.312C9.22 55.568 10.9 55.196 12.916 55.196C14.02 55.196 15.1 55.256 16.156 55.376C17.212 55.472 18.256 55.592 19.288 55.736C20.32 55.856 21.352 55.976 22.384 56.096C23.44 56.192 24.508 56.24 25.588 56.24C25.588 58.016 25.576 59.72 25.552 61.352C25.528 62.984 25.516 64.544 25.516 66.032C25.516 67.52 25.528 68.924 25.552 70.244C25.6 71.756 25.672 73.16 25.768 74.456C25.888 75.752 26.056 76.928 26.272 77.984C26.488 79.016 26.776 79.916 27.136 80.684C27.52 81.452 27.988 82.088 28.54 82.592C28.468 83 28.216 83.444 27.784 83.924C27.376 84.428 26.836 84.86 26.164 85.22C25.492 85.58 24.748 85.76 23.932 85.76ZM14.572 71.396H18.604C18.604 70.46 18.604 69.476 18.604 68.444C18.604 67.388 18.628 66.272 18.676 65.096C18.724 63.896 18.772 62.648 18.82 61.352H18.784C18.064 63.416 17.344 65.276 16.624 66.932C15.928 68.588 15.244 70.076 14.572 71.396ZM54.3554 80.72C53.1554 80.72 52.1594 80.42 51.3674 79.82C50.5994 79.196 50.2154 78.26 50.2154 77.012C50.2154 76.484 50.2874 75.836 50.4314 75.068C50.5754 74.3 50.7434 73.484 50.9354 72.62C51.1514 71.732 51.3554 70.856 51.5474 69.992C51.7634 69.104 51.9434 68.276 52.0874 67.508C52.2314 66.74 52.3034 66.068 52.3034 65.492C52.3034 65.036 52.2194 64.628 52.0514 64.268C51.9074 63.884 51.5834 63.692 51.0794 63.692C50.5754 63.692 50.1314 63.896 49.7474 64.304C49.3874 64.688 49.0874 65.18 48.8474 65.78C48.6074 66.356 48.4154 66.944 48.2714 67.544C48.1274 68.144 48.0074 68.648 47.9114 69.056L45.7874 80L38.5874 80.72L40.6034 71.216C40.6754 70.928 40.7594 70.532 40.8554 70.028C40.9754 69.524 41.0834 68.984 41.1794 68.408C41.2754 67.808 41.3594 67.244 41.4314 66.716C41.5274 66.164 41.5754 65.72 41.5754 65.384C41.5754 64.976 41.4914 64.592 41.3234 64.232C41.1794 63.872 40.8434 63.692 40.3154 63.692C39.8114 63.692 39.3674 63.884 38.9834 64.268C38.6234 64.628 38.3114 65.096 38.0474 65.672C37.8074 66.248 37.6034 66.848 37.4354 67.472C37.2914 68.072 37.1714 68.6 37.0754 69.056L34.9514 80L27.7514 80.72L31.4954 61.64L37.3634 60.92L36.7874 64.448C37.4354 63.176 38.3234 62.276 39.4514 61.748C40.5794 61.196 41.8274 60.92 43.1954 60.92C44.3714 60.92 45.3914 61.136 46.2554 61.568C47.1194 61.976 47.7194 62.72 48.0554 63.8C48.7274 62.768 49.5914 62.036 50.6474 61.604C51.7274 61.148 52.8914 60.92 54.1394 60.92C55.6994 60.92 56.9474 61.244 57.8834 61.892C58.8194 62.54 59.2874 63.632 59.2874 65.168C59.2874 65.768 59.2154 66.452 59.0714 67.22C58.9274 67.988 58.7594 68.78 58.5674 69.596C58.3754 70.412 58.1834 71.228 57.9914 72.044C57.7994 72.836 57.6314 73.58 57.4874 74.276C57.3674 74.948 57.3074 75.524 57.3074 76.004C57.3074 76.58 57.4274 77.048 57.6674 77.408C57.9314 77.768 58.3754 77.984 58.9994 78.056C58.7114 78.968 58.1114 79.64 57.1994 80.072C56.2874 80.504 55.3394 80.72 54.3554 80.72ZM69.2023 80.684C68.6983 80.684 68.2663 80.648 67.9063 80.576C67.5463 80.528 67.0903 80.42 66.5383 80.252L60.2383 79.712L63.6943 61.64L69.7063 60.92L69.2383 63.692C69.8383 62.924 70.5943 62.264 71.5063 61.712C72.4183 61.16 73.4983 60.884 74.7463 60.884C76.1623 60.884 77.3023 61.172 78.1663 61.748C79.0543 62.324 79.6903 63.14 80.0743 64.196C80.4823 65.252 80.6863 66.524 80.6863 68.012C80.6863 69.812 80.4223 71.492 79.8943 73.052C79.3903 74.588 78.6343 75.932 77.6263 77.084C76.6423 78.212 75.4423 79.1 74.0263 79.748C72.6103 80.372 71.0023 80.684 69.2023 80.684ZM63.0823 87.2C62.0743 87.2 61.2703 86.936 60.6703 86.408C60.0943 85.88 59.8063 85.004 59.8063 83.78C59.8063 83.516 59.8183 83.204 59.8423 82.844C59.8663 82.508 59.9023 82.136 59.9503 81.728C59.9983 81.32 60.0583 80.9 60.1303 80.468C60.1783 80.036 60.2503 79.592 60.3463 79.136L67.2943 79.928C67.1743 80.552 67.0423 81.236 66.8983 81.98C66.7783 82.748 66.7183 83.504 66.7183 84.248C66.7183 84.584 66.7303 84.908 66.7543 85.22C66.8023 85.532 66.8623 85.832 66.9343 86.12C66.3823 86.456 65.7583 86.72 65.0623 86.912C64.3903 87.104 63.7303 87.2 63.0823 87.2ZM69.5263 78.56C70.2223 78.56 70.8223 78.272 71.3263 77.696C71.8303 77.096 72.2503 76.304 72.5863 75.32C72.9223 74.336 73.1863 73.28 73.3783 72.152C73.5943 71 73.7383 69.872 73.8103 68.768C73.9063 67.664 73.9543 66.692 73.9543 65.852C73.9543 65.228 73.8703 64.676 73.7023 64.196C73.5343 63.692 73.1383 63.44 72.5143 63.44C71.8903 63.44 71.3623 63.68 70.9303 64.16C70.5223 64.64 70.1983 65.228 69.9583 65.924C69.7183 66.62 69.5383 67.292 69.4183 67.94L67.6543 77.876C67.9183 78.092 68.2183 78.26 68.5543 78.38C68.9143 78.5 69.2383 78.56 69.5263 78.56ZM85.8363 80.72C84.6603 80.72 83.6763 80.42 82.8843 79.82C82.1163 79.196 81.7323 78.26 81.7323 77.012C81.7323 76.46 81.7923 75.752 81.9123 74.888C82.0323 74.024 82.1883 73.076 82.3803 72.044C82.5963 71.012 82.8123 69.968 83.0283 68.912C83.2683 67.832 83.4963 66.8 83.7123 65.816C83.9523 64.832 84.1563 63.968 84.3243 63.224C84.4923 62.456 84.6003 61.868 84.6483 61.46C84.9123 60.092 85.1043 58.952 85.2243 58.04C85.3443 57.128 85.4043 56.348 85.4043 55.7C85.4043 55.316 85.3803 54.968 85.3323 54.656C85.3083 54.344 85.2603 54.068 85.1883 53.828C85.7163 53.54 86.3283 53.312 87.0243 53.144C87.7443 52.952 88.4403 52.856 89.1123 52.856C90.0003 52.856 90.7923 53.072 91.4883 53.504C92.1843 53.936 92.5323 54.728 92.5323 55.88C92.5323 56.168 92.4963 56.552 92.4243 57.032C92.3763 57.512 92.3043 58.088 92.2083 58.76C92.1123 59.408 91.9923 60.116 91.8483 60.884C91.7043 61.652 91.5363 62.468 91.3443 63.332C90.8643 65.66 90.4683 67.568 90.1562 69.056C89.8443 70.544 89.5923 71.744 89.4003 72.656C89.2323 73.544 89.1003 74.216 89.0043 74.672C88.9323 75.128 88.8843 75.452 88.8603 75.644C88.8363 75.836 88.8243 76.004 88.8243 76.148C88.8243 76.604 88.9563 77.024 89.2203 77.408C89.4843 77.792 89.9163 78.008 90.5163 78.056C90.3243 78.656 89.9763 79.16 89.4723 79.568C88.9923 79.952 88.4283 80.24 87.7803 80.432C87.1563 80.624 86.5083 80.72 85.8363 80.72ZM97.129 80.72C95.929 80.72 94.945 80.42 94.177 79.82C93.409 79.196 93.025 78.26 93.025 77.012C93.025 76.556 93.073 75.956 93.169 75.212C93.265 74.468 93.385 73.688 93.529 72.872C93.697 72.032 93.853 71.24 93.997 70.496C94.141 69.752 94.261 69.152 94.357 68.696L95.725 61.64L102.961 60.92L100.297 74.636C100.273 74.828 100.237 75.068 100.189 75.356C100.141 75.644 100.117 75.908 100.117 76.148C100.117 76.604 100.249 77.024 100.513 77.408C100.777 77.792 101.209 78.008 101.809 78.056C101.521 78.968 100.921 79.64 100.009 80.072C99.097 80.504 98.137 80.72 97.129 80.72ZM100.369 58.76C99.265 58.76 98.341 58.52 97.597 58.04C96.877 57.56 96.517 56.864 96.517 55.952C96.517 55.016 96.901 54.296 97.669 53.792C98.461 53.264 99.409 53 100.513 53C101.617 53 102.517 53.252 103.213 53.756C103.909 54.26 104.257 54.968 104.257 55.88C104.257 56.816 103.885 57.536 103.141 58.04C102.397 58.52 101.473 58.76 100.369 58.76ZM104.164 86.84C103.18 86.84 102.328 86.684 101.608 86.372C100.888 86.06 100.384 85.592 100.096 84.968C100.792 84.68 101.38 84.344 101.86 83.96C102.34 83.6 102.772 83.06 103.156 82.34C103.516 81.62 103.864 80.636 104.2 79.388C104.56 78.14 104.944 76.496 105.352 74.456L107.476 63.26H104.956L105.28 61.64H107.908L108.556 59.444C109.036 57.932 109.768 56.792 110.752 56.024C111.76 55.256 112.96 54.74 114.352 54.476C115.744 54.212 117.268 54.08 118.924 54.08C119.62 54.08 120.448 54.116 121.408 54.188C122.368 54.236 123.304 54.38 124.216 54.62C125.128 54.836 125.884 55.172 126.484 55.628C127.108 56.06 127.42 56.672 127.42 57.464C127.42 58.136 127.192 58.652 126.736 59.012C126.304 59.348 125.764 59.588 125.116 59.732C124.492 59.852 123.904 59.912 123.352 59.912C122.464 59.912 121.732 59.804 121.156 59.588C120.604 59.372 120.184 59.084 119.896 58.724C120.16 58.268 120.292 57.812 120.292 57.356C120.292 56.852 120.124 56.456 119.788 56.168C119.452 55.88 118.984 55.736 118.384 55.736C117.544 55.736 116.896 56.036 116.44 56.636C116.008 57.212 115.672 58.016 115.432 59.048L114.856 61.64H126.556L124.036 74.636C124.012 74.828 123.976 75.068 123.928 75.356C123.88 75.644 123.856 75.908 123.856 76.148C123.856 76.604 123.988 77.024 124.252 77.408C124.516 77.792 124.924 78.008 125.476 78.056C125.188 78.968 124.588 79.64 123.676 80.072C122.764 80.504 121.828 80.72 120.868 80.72C119.644 80.72 118.648 80.42 117.88 79.82C117.112 79.196 116.728 78.26 116.728 77.012C116.728 76.556 116.776 75.956 116.872 75.212C116.968 74.468 117.088 73.688 117.232 72.872C117.4 72.032 117.544 71.24 117.664 70.496C117.808 69.752 117.928 69.152 118.024 68.696L119.104 63.26H114.568L112.408 74.456C111.856 77.456 111.232 79.856 110.536 81.656C109.864 83.48 109.024 84.8 108.016 85.616C107.032 86.432 105.748 86.84 104.164 86.84ZM135.385 80.72C133.897 80.72 132.577 80.456 131.425 79.928C130.273 79.4 129.361 78.584 128.689 77.48C128.041 76.376 127.717 74.948 127.717 73.196C127.717 71.636 127.945 70.124 128.401 68.66C128.857 67.196 129.565 65.888 130.525 64.736C131.485 63.56 132.697 62.636 134.161 61.964C135.649 61.268 137.413 60.92 139.453 60.92C140.509 60.92 141.493 61.04 142.405 61.28C143.341 61.52 144.097 61.976 144.673 62.648C145.273 63.296 145.573 64.232 145.573 65.456C145.573 66.608 145.237 67.628 144.565 68.516C143.917 69.38 142.909 70.064 141.541 70.568C140.197 71.072 138.493 71.384 136.429 71.504C136.141 71.528 135.841 71.54 135.529 71.54C135.217 71.54 134.905 71.54 134.593 71.54C134.569 71.804 134.545 72.08 134.521 72.368C134.497 72.632 134.485 72.86 134.485 73.052C134.485 74.06 134.701 74.84 135.133 75.392C135.589 75.92 136.357 76.184 137.437 76.184C138.349 76.184 139.273 75.992 140.209 75.608C141.169 75.2 141.877 74.636 142.333 73.916C142.669 74.108 142.897 74.348 143.017 74.636C143.161 74.924 143.233 75.26 143.233 75.644C143.233 76.676 142.861 77.576 142.117 78.344C141.373 79.112 140.401 79.7 139.201 80.108C138.025 80.516 136.753 80.72 135.385 80.72ZM134.809 69.992C135.649 69.992 136.393 69.86 137.041 69.596C137.689 69.308 138.229 68.936 138.661 68.48C139.117 68.024 139.453 67.472 139.669 66.824C139.909 66.176 140.029 65.468 140.029 64.7C140.005 64.124 139.897 63.656 139.705 63.296C139.537 62.936 139.201 62.756 138.697 62.756C138.289 62.756 137.893 62.9 137.509 63.188C137.125 63.452 136.765 63.872 136.429 64.448C136.093 65.024 135.781 65.78 135.493 66.716C135.229 67.628 135.001 68.72 134.809 69.992ZM151.794 80.72C150.45 80.72 149.334 80.432 148.446 79.856C147.582 79.256 146.934 78.428 146.502 77.372C146.094 76.316 145.89 75.068 145.89 73.628C145.89 71.804 146.166 70.124 146.718 68.588C147.294 67.052 148.086 65.708 149.094 64.556C150.102 63.404 151.266 62.516 152.586 61.892C153.93 61.244 155.382 60.92 156.942 60.92C157.446 60.92 157.974 60.956 158.526 61.028C159.102 61.076 159.546 61.172 159.858 61.316L166.23 62.648C165.894 64.448 165.534 66.344 165.15 68.336C164.766 70.328 164.334 72.428 163.854 74.636C163.83 74.828 163.794 75.068 163.746 75.356C163.698 75.644 163.674 75.908 163.674 76.148C163.674 76.604 163.806 77.024 164.07 77.408C164.334 77.792 164.766 78.008 165.366 78.056C165.174 78.656 164.826 79.16 164.322 79.568C163.842 79.952 163.278 80.24 162.63 80.432C162.006 80.624 161.394 80.72 160.794 80.72C160.002 80.72 159.27 80.552 158.598 80.216C157.926 79.88 157.458 79.364 157.194 78.668C156.57 79.292 155.802 79.784 154.89 80.144C154.002 80.528 152.97 80.72 151.794 80.72ZM154.062 78.416C154.686 78.416 155.202 78.176 155.61 77.696C156.042 77.192 156.366 76.592 156.582 75.896C156.822 75.2 156.99 74.54 157.086 73.916L158.886 63.728C158.574 63.512 158.25 63.356 157.914 63.26C157.602 63.14 157.314 63.08 157.05 63.08C156.378 63.08 155.79 63.38 155.286 63.98C154.782 64.556 154.35 65.336 153.99 66.32C153.654 67.304 153.378 68.372 153.162 69.524C152.97 70.652 152.826 71.768 152.73 72.872C152.658 73.976 152.622 74.948 152.622 75.788C152.622 76.412 152.706 77.012 152.874 77.588C153.042 78.14 153.438 78.416 154.062 78.416ZM166.158 63.044L159.246 62.648C159.51 61.376 159.726 60.212 159.894 59.156C160.062 58.076 160.158 57.068 160.182 56.132C160.182 55.724 160.17 55.34 160.146 54.98C160.146 54.596 160.122 54.212 160.074 53.828C160.578 53.54 161.19 53.312 161.91 53.144C162.63 52.952 163.326 52.856 163.998 52.856C164.91 52.856 165.702 53.084 166.374 53.54C167.046 53.996 167.358 54.824 167.31 56.024C167.31 56.384 167.262 56.9 167.166 57.572C167.07 58.244 166.938 59.036 166.77 59.948C166.602 60.86 166.398 61.892 166.158 63.044Z" fill="#C6C6C6"/>
<path d="M30.7713 103.427V105H24.3623V95.77H30.6543V97.343H26.1563V99.566H30.0433V101.022H26.1563V103.427H30.7713ZM31.5329 102.985C31.5329 102.543 31.6542 102.157 31.8969 101.828C32.1482 101.49 32.4949 101.23 32.9369 101.048C33.3789 100.866 33.8859 100.775 34.4579 100.775C34.7439 100.775 35.0342 100.797 35.3289 100.84C35.6236 100.883 35.8792 100.953 36.0959 101.048V100.684C36.0959 100.251 35.9659 99.917 35.7059 99.683C35.4546 99.449 35.0776 99.332 34.5749 99.332C34.2022 99.332 33.8469 99.397 33.5089 99.527C33.1709 99.657 32.8156 99.8477 32.4429 100.099L31.8839 98.955C32.3346 98.6603 32.7939 98.4393 33.2619 98.292C33.7386 98.1447 34.2369 98.071 34.7569 98.071C35.7276 98.071 36.4816 98.3137 37.0189 98.799C37.5649 99.2843 37.8379 99.9777 37.8379 100.879V103.05C37.8379 103.232 37.8682 103.362 37.9289 103.44C37.9982 103.518 38.1066 103.566 38.2539 103.583V105C38.0979 105.026 37.9549 105.048 37.8249 105.065C37.7036 105.082 37.5996 105.091 37.5129 105.091C37.1662 105.091 36.9019 105.013 36.7199 104.857C36.5466 104.701 36.4382 104.51 36.3949 104.285L36.3559 103.934C36.0612 104.315 35.6929 104.61 35.2509 104.818C34.8089 105.026 34.3582 105.13 33.8989 105.13C33.4482 105.13 33.0409 105.039 32.6769 104.857C32.3216 104.666 32.0399 104.411 31.8319 104.09C31.6326 103.761 31.5329 103.392 31.5329 102.985ZM35.7709 103.336C35.8662 103.232 35.9442 103.128 36.0049 103.024C36.0656 102.92 36.0959 102.825 36.0959 102.738V102.049C35.8879 101.962 35.6626 101.897 35.4199 101.854C35.1772 101.802 34.9476 101.776 34.7309 101.776C34.2802 101.776 33.9076 101.876 33.6129 102.075C33.3269 102.266 33.1839 102.521 33.1839 102.842C33.1839 103.015 33.2316 103.18 33.3269 103.336C33.4222 103.492 33.5609 103.618 33.7429 103.713C33.9249 103.808 34.1416 103.856 34.3929 103.856C34.6529 103.856 34.9086 103.808 35.1599 103.713C35.4112 103.609 35.6149 103.483 35.7709 103.336ZM43.4843 104.649C43.3369 104.71 43.1593 104.779 42.9513 104.857C42.7433 104.935 42.5179 104.996 42.2753 105.039C42.0413 105.091 41.8029 105.117 41.5603 105.117C41.2396 105.117 40.9449 105.061 40.6763 104.948C40.4076 104.835 40.1909 104.658 40.0263 104.415C39.8703 104.164 39.7923 103.839 39.7923 103.44V99.527H38.8953V98.188H39.7923V95.978H41.5343V98.188H42.9643V99.527H41.5343V102.855C41.5429 103.089 41.6079 103.258 41.7293 103.362C41.8506 103.466 42.0023 103.518 42.1843 103.518C42.3663 103.518 42.5439 103.488 42.7173 103.427C42.8906 103.366 43.0293 103.314 43.1333 103.271L43.4843 104.649ZM129.338 103.427V105H122.929V95.77H129.221V97.343H124.723V99.566H128.61V101.022H124.723V103.427H129.338ZM130.099 102.985C130.099 102.543 130.221 102.157 130.463 101.828C130.715 101.49 131.061 101.23 131.503 101.048C131.945 100.866 132.452 100.775 133.024 100.775C133.31 100.775 133.601 100.797 133.895 100.84C134.19 100.883 134.446 100.953 134.662 101.048V100.684C134.662 100.251 134.532 99.917 134.272 99.683C134.021 99.449 133.644 99.332 133.141 99.332C132.769 99.332 132.413 99.397 132.075 99.527C131.737 99.657 131.382 99.8477 131.009 100.099L130.45 98.955C130.901 98.6603 131.36 98.4393 131.828 98.292C132.305 98.1447 132.803 98.071 133.323 98.071C134.294 98.071 135.048 98.3137 135.585 98.799C136.131 99.2843 136.404 99.9777 136.404 100.879V103.05C136.404 103.232 136.435 103.362 136.495 103.44C136.565 103.518 136.673 103.566 136.82 103.583V105C136.664 105.026 136.521 105.048 136.391 105.065C136.27 105.082 136.166 105.091 136.079 105.091C135.733 105.091 135.468 105.013 135.286 104.857C135.113 104.701 135.005 104.51 134.961 104.285L134.922 103.934C134.628 104.315 134.259 104.61 133.817 104.818C133.375 105.026 132.925 105.13 132.465 105.13C132.015 105.13 131.607 105.039 131.243 104.857C130.888 104.666 130.606 104.411 130.398 104.09C130.199 103.761 130.099 103.392 130.099 102.985ZM134.337 103.336C134.433 103.232 134.511 103.128 134.571 103.024C134.632 102.92 134.662 102.825 134.662 102.738V102.049C134.454 101.962 134.229 101.897 133.986 101.854C133.744 101.802 133.514 101.776 133.297 101.776C132.847 101.776 132.474 101.876 132.179 102.075C131.893 102.266 131.75 102.521 131.75 102.842C131.75 103.015 131.798 103.18 131.893 103.336C131.989 103.492 132.127 103.618 132.309 103.713C132.491 103.808 132.708 103.856 132.959 103.856C133.219 103.856 133.475 103.808 133.726 103.713C133.978 103.609 134.181 103.483 134.337 103.336ZM142.051 104.649C141.903 104.71 141.726 104.779 141.518 104.857C141.31 104.935 141.084 104.996 140.842 105.039C140.608 105.091 140.369 105.117 140.127 105.117C139.806 105.117 139.511 105.061 139.243 104.948C138.974 104.835 138.757 104.658 138.593 104.415C138.437 104.164 138.359 103.839 138.359 103.44V99.527H137.462V98.188H138.359V95.978H140.101V98.188H141.531V99.527H140.101V102.855C140.109 103.089 140.174 103.258 140.296 103.362C140.417 103.466 140.569 103.518 140.751 103.518C140.933 103.518 141.11 103.488 141.284 103.427C141.457 103.366 141.596 103.314 141.7 103.271L142.051 104.649Z" fill="#AC2323" fill-opacity="0.5"/>
<path d="M54.0926 103.427V105H47.6836V95.77H53.9756V97.343H49.4776V99.566H53.3646V101.022H49.4776V103.427H54.0926ZM56.4402 98.188L57.8702 100.32L57.9742 100.554L58.1042 100.32L59.5212 98.188H61.3542L58.9882 101.581L61.3932 105H59.5602L58.0912 102.881L57.9742 102.66L57.8702 102.881L56.4142 105H54.5812L56.9862 101.62L54.6202 98.188H56.4402ZM66.3104 105.13C65.7818 105.13 65.3138 105.013 64.9064 104.779C64.5078 104.536 64.1958 104.211 63.9704 103.804V107.769H62.2284V98.188H63.7494V99.358C64.0094 98.9593 64.3388 98.6473 64.7374 98.422C65.1361 98.188 65.5911 98.071 66.1024 98.071C66.5618 98.071 66.9821 98.162 67.3634 98.344C67.7534 98.526 68.0914 98.7817 68.3774 99.111C68.6634 99.4317 68.8844 99.8043 69.0404 100.229C69.2051 100.645 69.2874 101.096 69.2874 101.581C69.2874 102.24 69.1574 102.838 68.8974 103.375C68.6461 103.912 68.2951 104.341 67.8444 104.662C67.4024 104.974 66.8911 105.13 66.3104 105.13ZM65.7254 103.648C65.9941 103.648 66.2368 103.592 66.4534 103.479C66.6701 103.366 66.8564 103.215 67.0124 103.024C67.1771 102.825 67.2984 102.604 67.3764 102.361C67.4631 102.11 67.5064 101.85 67.5064 101.581C67.5064 101.295 67.4588 101.031 67.3634 100.788C67.2768 100.545 67.1468 100.333 66.9734 100.151C66.8001 99.9603 66.5964 99.813 66.3624 99.709C66.1371 99.605 65.8901 99.553 65.6214 99.553C65.4568 99.553 65.2878 99.5833 65.1144 99.644C64.9498 99.696 64.7894 99.774 64.6334 99.878C64.4774 99.982 64.3388 100.103 64.2174 100.242C64.1048 100.381 64.0224 100.532 63.9704 100.697V102.296C64.0744 102.547 64.2131 102.777 64.3864 102.985C64.5684 103.193 64.7764 103.358 65.0104 103.479C65.2444 103.592 65.4828 103.648 65.7254 103.648ZM70.4547 95.51H72.1967V102.816C72.1967 103.128 72.2487 103.34 72.3527 103.453C72.4567 103.557 72.5997 103.609 72.7817 103.609C72.9204 103.609 73.0634 103.592 73.2107 103.557C73.358 103.522 73.488 103.479 73.6007 103.427L73.8347 104.753C73.6007 104.866 73.3277 104.952 73.0157 105.013C72.7037 105.074 72.422 105.104 72.1707 105.104C71.6247 105.104 71.2 104.961 70.8967 104.675C70.602 104.38 70.4547 103.964 70.4547 103.427V95.51ZM77.7397 105.13C77.185 105.13 76.6867 105.039 76.2447 104.857C75.8027 104.666 75.4257 104.406 75.1137 104.077C74.8103 103.748 74.5763 103.371 74.4117 102.946C74.247 102.521 74.1647 102.075 74.1647 101.607C74.1647 101.13 74.247 100.68 74.4117 100.255C74.5763 99.8303 74.8103 99.4533 75.1137 99.124C75.4257 98.7947 75.8027 98.539 76.2447 98.357C76.6867 98.1663 77.185 98.071 77.7397 98.071C78.2943 98.071 78.7883 98.1663 79.2217 98.357C79.6637 98.539 80.0407 98.7947 80.3527 99.124C80.6647 99.4533 80.8987 99.8303 81.0547 100.255C81.2193 100.68 81.3017 101.13 81.3017 101.607C81.3017 102.075 81.2193 102.521 81.0547 102.946C80.8987 103.371 80.6647 103.748 80.3527 104.077C80.0493 104.406 79.6767 104.666 79.2347 104.857C78.7927 105.039 78.2943 105.13 77.7397 105.13ZM75.9587 101.607C75.9587 102.006 76.0367 102.361 76.1927 102.673C76.3487 102.976 76.561 103.215 76.8297 103.388C77.0983 103.561 77.4017 103.648 77.7397 103.648C78.069 103.648 78.368 103.561 78.6367 103.388C78.9053 103.206 79.1177 102.963 79.2737 102.66C79.4383 102.348 79.5207 101.993 79.5207 101.594C79.5207 101.204 79.4383 100.853 79.2737 100.541C79.1177 100.229 78.9053 99.9863 78.6367 99.813C78.368 99.6397 78.069 99.553 77.7397 99.553C77.4017 99.553 77.0983 99.644 76.8297 99.826C76.561 99.9993 76.3487 100.242 76.1927 100.554C76.0367 100.857 75.9587 101.208 75.9587 101.607ZM86.5335 99.696C86.0048 99.696 85.5325 99.8 85.1165 100.008C84.7005 100.207 84.4015 100.498 84.2195 100.879V105H82.4775V98.188H84.0765V99.644C84.3191 99.176 84.6268 98.8077 84.9995 98.539C85.3721 98.2703 85.7665 98.123 86.1825 98.097C86.2778 98.097 86.3515 98.097 86.4035 98.097C86.4555 98.097 86.4988 98.1013 86.5335 98.11V99.696ZM90.5749 105.13C90.0289 105.13 89.5349 105.039 89.0929 104.857C88.6509 104.666 88.2739 104.411 87.9619 104.09C87.6499 103.761 87.4073 103.388 87.2339 102.972C87.0693 102.547 86.9869 102.101 86.9869 101.633C86.9869 100.983 87.1299 100.389 87.4159 99.852C87.7106 99.3147 88.1266 98.8857 88.6639 98.565C89.2099 98.2357 89.8513 98.071 90.5879 98.071C91.3333 98.071 91.9703 98.2357 92.4989 98.565C93.0276 98.8857 93.4306 99.3147 93.7079 99.852C93.9939 100.381 94.1369 100.953 94.1369 101.568C94.1369 101.672 94.1326 101.78 94.1239 101.893C94.1153 101.997 94.1066 102.084 94.0979 102.153H88.8329C88.8676 102.5 88.9673 102.803 89.1319 103.063C89.3053 103.323 89.5219 103.522 89.7819 103.661C90.0506 103.791 90.3366 103.856 90.6399 103.856C90.9866 103.856 91.3116 103.774 91.6149 103.609C91.9269 103.436 92.1393 103.21 92.2519 102.933L93.7469 103.349C93.5823 103.696 93.3439 104.003 93.0319 104.272C92.7286 104.541 92.3689 104.753 91.9529 104.909C91.5369 105.056 91.0776 105.13 90.5749 105.13ZM88.7939 101.048H92.3559C92.3213 100.701 92.2216 100.402 92.0569 100.151C91.9009 99.891 91.6929 99.6917 91.4329 99.553C91.1729 99.4057 90.8826 99.332 90.5619 99.332C90.2499 99.332 89.9639 99.4057 89.7039 99.553C89.4526 99.6917 89.2446 99.891 89.0799 100.151C88.9239 100.402 88.8286 100.701 88.7939 101.048ZM98.4902 105V95.77H102.572C102.997 95.77 103.387 95.8567 103.742 96.03C104.106 96.2033 104.418 96.4373 104.678 96.732C104.947 97.0267 105.151 97.356 105.289 97.72C105.437 98.084 105.51 98.4567 105.51 98.838C105.51 99.228 105.441 99.605 105.302 99.969C105.172 100.324 104.982 100.636 104.73 100.905C104.479 101.174 104.184 101.382 103.846 101.529L105.952 105H103.976L102.078 101.906H100.284V105H98.4902ZM100.284 100.333H102.533C102.759 100.333 102.958 100.268 103.131 100.138C103.305 99.9993 103.443 99.8173 103.547 99.592C103.651 99.3667 103.703 99.1153 103.703 98.838C103.703 98.5433 103.643 98.2877 103.521 98.071C103.4 97.8457 103.244 97.668 103.053 97.538C102.871 97.408 102.672 97.343 102.455 97.343H100.284V100.333ZM109.897 105.13C109.351 105.13 108.857 105.039 108.415 104.857C107.973 104.666 107.596 104.411 107.284 104.09C106.972 103.761 106.73 103.388 106.556 102.972C106.392 102.547 106.309 102.101 106.309 101.633C106.309 100.983 106.452 100.389 106.738 99.852C107.033 99.3147 107.449 98.8857 107.986 98.565C108.532 98.2357 109.174 98.071 109.91 98.071C110.656 98.071 111.293 98.2357 111.821 98.565C112.35 98.8857 112.753 99.3147 113.03 99.852C113.316 100.381 113.459 100.953 113.459 101.568C113.459 101.672 113.455 101.78 113.446 101.893C113.438 101.997 113.429 102.084 113.42 102.153H108.155C108.19 102.5 108.29 102.803 108.454 103.063C108.628 103.323 108.844 103.522 109.104 103.661C109.373 103.791 109.659 103.856 109.962 103.856C110.309 103.856 110.634 103.774 110.937 103.609C111.249 103.436 111.462 103.21 111.574 102.933L113.069 103.349C112.905 103.696 112.666 104.003 112.354 104.272C112.051 104.541 111.691 104.753 111.275 104.909C110.859 105.056 110.4 105.13 109.897 105.13ZM108.116 101.048H111.678C111.644 100.701 111.544 100.402 111.379 100.151C111.223 99.891 111.015 99.6917 110.755 99.553C110.495 99.4057 110.205 99.332 109.884 99.332C109.572 99.332 109.286 99.4057 109.026 99.553C108.775 99.6917 108.567 99.891 108.402 100.151C108.246 100.402 108.151 100.701 108.116 101.048ZM118.602 105.13C118.074 105.13 117.606 105.013 117.198 104.779C116.8 104.536 116.488 104.211 116.262 103.804V107.769H114.52V98.188H116.041V99.358C116.301 98.9593 116.631 98.6473 117.029 98.422C117.428 98.188 117.883 98.071 118.394 98.071C118.854 98.071 119.274 98.162 119.655 98.344C120.045 98.526 120.383 98.7817 120.669 99.111C120.955 99.4317 121.176 99.8043 121.332 100.229C121.497 100.645 121.579 101.096 121.579 101.581C121.579 102.24 121.449 102.838 121.189 103.375C120.938 103.912 120.587 104.341 120.136 104.662C119.694 104.974 119.183 105.13 118.602 105.13ZM118.017 103.648C118.286 103.648 118.529 103.592 118.745 103.479C118.962 103.366 119.148 103.215 119.304 103.024C119.469 102.825 119.59 102.604 119.668 102.361C119.755 102.11 119.798 101.85 119.798 101.581C119.798 101.295 119.751 101.031 119.655 100.788C119.569 100.545 119.439 100.333 119.265 100.151C119.092 99.9603 118.888 99.813 118.654 99.709C118.429 99.605 118.182 99.553 117.913 99.553C117.749 99.553 117.58 99.5833 117.406 99.644C117.242 99.696 117.081 99.774 116.925 99.878C116.769 99.982 116.631 100.103 116.509 100.242C116.397 100.381 116.314 100.532 116.262 100.697V102.296C116.366 102.547 116.505 102.777 116.678 102.985C116.86 103.193 117.068 103.358 117.302 103.479C117.536 103.592 117.775 103.648 118.017 103.648Z" fill="#CCCCCC"/>
</svg>
