<svg width="64" height="64" viewBox="0 0 64 64" fill="none" xmlns="http://www.w3.org/2000/svg">
<path d="M60.033 31.9989L63.57 25.8862C63.9951 25.1507 64.1107 24.2766 63.8914 23.4559C63.6721 22.6352 63.1359 21.9353 62.4006 21.5099L56.2815 17.9729V10.9247C56.2815 10.075 55.9439 9.26011 55.3431 8.6593C54.7423 8.05848 53.9274 7.72094 53.0777 7.72094H46.0327L42.4989 1.60499C42.0722 0.871063 41.3735 0.334721 40.5543 0.112043C40.1479 0.00188505 39.7237 -0.0265197 39.3063 0.0284751C38.8889 0.08347 38.4866 0.220771 38.1226 0.432418L32.0035 3.96935L25.8843 0.429214C25.1485 0.00438973 24.274 -0.110736 23.4533 0.109163C22.6326 0.329061 21.9329 0.865971 21.508 1.60179L17.9711 7.72094H10.926C10.0763 7.72094 9.26146 8.05848 8.66064 8.6593C8.05982 9.26011 7.72228 10.075 7.72228 10.9247V17.9697L1.60312 21.5067C1.238 21.7167 0.917973 21.9968 0.66143 22.3309C0.404887 22.6649 0.216883 23.0464 0.108221 23.4534C-0.000440809 23.8603 -0.0276196 24.2848 0.0282463 24.7023C0.0841122 25.1198 0.221921 25.5221 0.433757 25.8862L3.97069 31.9989L0.433757 38.1117C0.0108263 38.8478 -0.103922 39.7213 0.11453 40.5417C0.332982 41.3621 0.866917 42.0629 1.59992 42.4912L7.71908 46.0281V53.0732C7.71908 53.9229 8.05661 54.7377 8.65743 55.3386C9.25825 55.9394 10.0731 56.2769 10.9228 56.2769H17.9711L21.508 62.3961C21.7916 62.8809 22.1966 63.2836 22.6831 63.5645C23.1695 63.8453 23.7207 63.9947 24.2824 63.9979C24.8399 63.9979 25.3941 63.8506 25.8875 63.5654L32.0003 60.0285L38.1194 63.5654C38.8551 63.9897 39.7289 64.1048 40.5494 63.8856C41.3698 63.6664 42.0697 63.1307 42.4957 62.3961L46.0295 56.2769H53.0745C53.9242 56.2769 54.7391 55.9394 55.3399 55.3386C55.9407 54.7377 56.2783 53.9229 56.2783 53.0732V46.0281L62.3974 42.4912C62.7619 42.2806 63.0813 42.0002 63.3374 41.666C63.5934 41.3319 63.7811 40.9505 63.8897 40.5438C63.9983 40.1371 64.0257 39.7129 63.9703 39.2956C63.9149 38.8783 63.7778 38.476 63.5668 38.1117L60.033 31.9989ZM23.9909 15.9482C25.2659 15.9486 26.4884 16.4555 27.3896 17.3573C28.2909 18.2591 28.7969 19.482 28.7965 20.757C28.7961 22.0319 28.2892 23.2545 27.3874 24.1557C26.4856 25.057 25.2627 25.563 23.9877 25.5626C22.7127 25.5622 21.4902 25.0553 20.5889 24.1535C19.6877 23.2516 19.1817 22.0287 19.1821 20.7538C19.1825 19.4788 19.6894 18.2563 20.5912 17.355C21.493 16.4538 22.7159 15.9477 23.9909 15.9482ZM24.952 46.7041L19.826 42.8628L39.0485 17.2329L44.1745 21.0742L24.952 46.7041ZM40.0096 47.9856C39.3783 47.9854 38.7533 47.8609 38.1701 47.6191C37.587 47.3773 37.0571 47.023 36.6109 46.5765C36.1646 46.1299 35.8107 45.5999 35.5693 45.0166C35.3279 44.4332 35.2038 43.8081 35.204 43.1768C35.2042 42.5455 35.3288 41.9204 35.5706 41.3373C35.8123 40.7541 36.1666 40.2243 36.6131 39.7781C37.0597 39.3318 37.5898 38.9779 38.1731 38.7365C38.7564 38.4951 39.3815 38.371 40.0128 38.3712C41.2878 38.3716 42.5104 38.8785 43.4116 39.7803C44.3128 40.6821 44.8189 41.905 44.8185 43.18C44.818 44.455 44.3111 45.6775 43.4093 46.5788C42.5075 47.48 41.2846 47.986 40.0096 47.9856Z" fill="url(#paint0_angular_770_1653)"/>
<defs>
<radialGradient id="paint0_angular_770_1653" cx="0" cy="0" r="1" gradientUnits="userSpaceOnUse" gradientTransform="translate(32 31.999) rotate(90) scale(31.999 32)">
<stop offset="0.10012" stop-color="#0047FF"/>
<stop offset="0.113784" stop-color="#2A70FA" stop-opacity="0.66"/>
</radialGradient>
</defs>
</svg>
