<svg width="19" height="19" viewBox="0 0 19 19" fill="none" xmlns="http://www.w3.org/2000/svg">
<path d="M17.8139 9.48999L18.8628 7.67712C18.9889 7.459 19.0232 7.19975 18.9582 6.95637C18.8931 6.71298 18.7341 6.50538 18.516 6.37922L16.7013 5.33027V3.23996C16.7013 2.98796 16.6012 2.74629 16.423 2.5681C16.2448 2.38992 16.0031 2.28981 15.7511 2.28981H13.6618L12.6138 0.475995C12.4872 0.258333 12.28 0.0992688 12.037 0.0332288C11.9165 0.000559054 11.7907 -0.00786499 11.6669 0.00844493C11.5431 0.0247549 11.4238 0.0654744 11.3159 0.128243L9.5011 1.1772L7.68633 0.127293C7.4681 0.00130187 7.20876 -0.0328411 6.96536 0.0323746C6.72196 0.0975902 6.51444 0.256823 6.38844 0.475045L5.33948 2.28981H3.25012C2.99813 2.28981 2.75645 2.38992 2.57827 2.5681C2.40008 2.74629 2.29998 2.98796 2.29998 3.23996V5.32932L0.485207 6.37827C0.376922 6.44056 0.282011 6.52363 0.205927 6.62271C0.129844 6.72179 0.0740871 6.83492 0.041861 6.95562C0.00963489 7.07631 0.00157444 7.20218 0.0181427 7.326C0.034711 7.44982 0.0755813 7.56914 0.138406 7.67712L1.18736 9.48999L0.138406 11.3029C0.0129764 11.5212 -0.0210546 11.7802 0.0437321 12.0235C0.108519 12.2668 0.266869 12.4747 0.484257 12.6017L2.29903 13.6507V15.74C2.29903 15.992 2.39913 16.2337 2.57732 16.4119C2.7555 16.5901 2.99718 16.6902 3.24917 16.6902H5.33948L6.38844 18.5049C6.47255 18.6487 6.59266 18.7681 6.73693 18.8514C6.8812 18.9347 7.04467 18.979 7.21126 18.98C7.37658 18.98 7.54096 18.9363 7.68728 18.8517L9.50015 17.8028L11.3149 18.8517C11.5331 18.9775 11.7923 19.0117 12.0356 18.9467C12.2789 18.8817 12.4865 18.7228 12.6128 18.5049L13.6608 16.6902H15.7502C16.0022 16.6902 16.2438 16.5901 16.422 16.4119C16.6002 16.2337 16.7003 15.992 16.7003 15.74V13.6507L18.5151 12.6017C18.6232 12.5392 18.7179 12.4561 18.7939 12.357C18.8698 12.2579 18.9255 12.1448 18.9577 12.0242C18.9899 11.9035 18.998 11.7777 18.9816 11.654C18.9651 11.5302 18.9245 11.4109 18.8619 11.3029L17.8139 9.48999ZM7.12479 4.72978C7.50291 4.7299 7.86549 4.88023 8.13277 5.14769C8.40005 5.41515 8.55013 5.77782 8.55001 6.15594C8.54988 6.53406 8.39955 6.89664 8.1321 7.16391C7.86464 7.43119 7.50196 7.58128 7.12385 7.58115C6.74573 7.58103 6.38315 7.4307 6.11587 7.16324C5.84859 6.89578 5.69851 6.53311 5.69863 6.15499C5.69876 5.77687 5.84909 5.4143 6.11654 5.14702C6.384 4.87974 6.74668 4.72965 7.12479 4.72978ZM7.40984 13.8511L5.88961 12.7119L11.5905 5.11078L13.1107 6.25L7.40984 13.8511ZM11.8755 14.2312C11.6883 14.2311 11.5029 14.1942 11.33 14.1225C11.157 14.0508 10.9999 13.9457 10.8675 13.8133C10.7352 13.6809 10.6302 13.5237 10.5586 13.3507C10.487 13.1777 10.4502 12.9923 10.4503 12.805C10.4504 12.6178 10.4873 12.4324 10.559 12.2595C10.6307 12.0865 10.7358 11.9294 10.8682 11.7971C11.0006 11.6647 11.1578 11.5597 11.3308 11.4882C11.5038 11.4166 11.6892 11.3798 11.8765 11.3798C12.2546 11.3799 12.6171 11.5303 12.8844 11.7977C13.1517 12.0652 13.3018 12.4279 13.3017 12.806C13.3015 13.1841 13.1512 13.5467 12.8838 13.814C12.6163 14.0812 12.2536 14.2313 11.8755 14.2312Z" fill="url(#paint0_angular_952_3408)"/>
<defs>
<radialGradient id="paint0_angular_952_3408" cx="0" cy="0" r="1" gradientUnits="userSpaceOnUse" gradientTransform="translate(9.50007 9.49) rotate(90) scale(9.49 9.4903)">
<stop offset="0.10012" stop-color="#0047FF"/>
<stop offset="0.113784" stop-color="#2A70FA" stop-opacity="0.66"/>
</radialGradient>
</defs>
</svg>
