<svg xmlns="http://www.w3.org/2000/svg" width="53" height="53" viewBox="0 0 53 53" fill="none">
<path d="M27.1428 3.50111L30.7313 6.98439C31.8894 8.10849 33.4331 8.7479 35.0468 8.77192L40.0473 8.84636C41.4328 8.86698 42.5509 9.98512 42.5716 11.3706L42.646 16.3711C42.67 17.9849 43.3094 19.5285 44.4335 20.6866L47.9168 24.2751C48.8819 25.2694 48.8819 26.8507 47.9168 27.8449L44.4335 31.4335C43.3094 32.5915 42.67 34.1352 42.646 35.749L42.5716 40.7495C42.5509 42.1349 41.4328 43.2531 40.0473 43.2737L35.0468 43.3481C33.4331 43.3722 31.8894 44.0116 30.7313 45.1357L27.1428 48.619C26.1485 49.584 24.5672 49.584 23.573 48.619L19.9844 45.1357C18.8264 44.0116 17.2827 43.3722 15.669 43.3481L10.6684 43.2737C9.28297 43.2531 8.16483 42.1349 8.14421 40.7495L8.06977 35.749C8.04575 34.1352 7.40634 32.5915 6.28224 31.4335L2.79896 27.8449C1.83388 26.8507 1.83388 25.2694 2.79896 24.2751L6.28224 20.6866C7.40635 19.5285 8.04575 17.9849 8.06977 16.3711L8.14421 11.3706C8.16483 9.98512 9.28297 8.86698 10.6684 8.84636L15.669 8.77192C17.2827 8.7479 18.8264 8.10849 19.9844 6.98438L23.573 3.50111C24.5672 2.53603 26.1485 2.53603 27.1428 3.50111Z" fill="url(#paint0_angular_1015_2137)" stroke="white" stroke-width="3.76859"/>
<circle cx="19.7289" cy="17.1937" r="3.23864" fill="white"/>
<circle cx="32.6839" cy="33.3871" r="3.23864" fill="white"/>
<rect x="32.4463" y="13.9551" width="5.71283" height="25.355" rx="2.85642" transform="rotate(39 32.4463 13.9551)" fill="white"/>
<defs>
<radialGradient id="paint0_angular_1015_2137" cx="0" cy="0" r="1" gradientUnits="userSpaceOnUse" gradientTransform="translate(25.3579 26.06) rotate(90) scale(26.9175)">
<stop offset="0.10012" stop-color="#0047FF"/>
<stop offset="0.113784" stop-color="#2A70FA" stop-opacity="0.66"/>
</radialGradient>
</defs>
</svg>