<svg width="31" height="32" viewBox="0 0 31 32" fill="none" xmlns="http://www.w3.org/2000/svg">
<circle cx="15.5" cy="16" r="15.5" fill="#F2F4F7"/>
<path d="M14.1111 12.4444C14.1111 12.2247 14.1763 12.0099 14.2984 11.8271C14.4205 11.6444 14.594 11.502 14.797 11.4179C15 11.3338 15.2235 11.3118 15.439 11.3547C15.6545 11.3976 15.8525 11.5034 16.0079 11.6588C16.1633 11.8142 16.2691 12.0121 16.312 12.2277C16.3549 12.4432 16.3329 12.6666 16.2488 12.8696C16.1647 13.0727 16.0222 13.2462 15.8395 13.3683C15.6568 13.4904 15.442 13.5556 15.2222 13.5556C14.9275 13.5556 14.6449 13.4385 14.4366 13.2301C14.2282 13.0217 14.1111 12.7391 14.1111 12.4444ZM23 15.5C23 16.9834 22.5601 18.4334 21.736 19.6668C20.9119 20.9001 19.7406 21.8614 18.3701 22.4291C16.9997 22.9968 15.4917 23.1453 14.0368 22.8559C12.582 22.5665 11.2456 21.8522 10.1967 20.8033C9.14781 19.7544 8.4335 18.418 8.14411 16.9632C7.85472 15.5083 8.00325 14.0003 8.57091 12.6299C9.13856 11.2594 10.0999 10.0881 11.3332 9.26398C12.5666 8.43987 14.0166 8 15.5 8C17.4884 8.00221 19.3948 8.79309 20.8009 10.1991C22.2069 11.6052 22.9978 13.5116 23 15.5ZM21.3333 15.5C21.3333 14.3463 20.9912 13.2185 20.3502 12.2592C19.7093 11.2999 18.7982 10.5522 17.7323 10.1107C16.6664 9.66919 15.4935 9.55367 14.362 9.77875C13.2304 10.0038 12.191 10.5594 11.3752 11.3752C10.5594 12.191 10.0038 13.2304 9.77876 14.362C9.55368 15.4935 9.66919 16.6664 10.1107 17.7323C10.5522 18.7982 11.2999 19.7093 12.2592 20.3502C13.2185 20.9912 14.3463 21.3333 15.5 21.3333C17.0466 21.3317 18.5294 20.7166 19.623 19.623C20.7166 18.5294 21.3317 17.0466 21.3333 15.5ZM16.3333 18.0472V15.7778C16.3333 15.4094 16.187 15.0562 15.9265 14.7957C15.6661 14.5352 15.3128 14.3889 14.9444 14.3889C14.7476 14.3886 14.5571 14.458 14.4065 14.5847C14.256 14.7114 14.1551 14.8874 14.1219 15.0813C14.0886 15.2753 14.125 15.4748 14.2248 15.6445C14.3245 15.8141 14.481 15.943 14.6667 16.0083V18.2778C14.6667 18.6461 14.813 18.9994 15.0735 19.2599C15.3339 19.5203 15.6872 19.6667 16.0556 19.6667C16.2524 19.667 16.4429 19.5976 16.5935 19.4709C16.744 19.3441 16.8449 19.1682 16.8781 18.9742C16.9114 18.7802 16.875 18.5808 16.7752 18.4111C16.6755 18.2414 16.519 18.1125 16.3333 18.0472Z" fill="#767C8F" stroke="#F2F4F7" stroke-width="0.69"/>
</svg>
