<svg width="31" height="32" viewBox="0 0 31 32" fill="none" xmlns="http://www.w3.org/2000/svg">
<circle cx="15.5" cy="16" r="15.5" fill="#F2F4F7"/>
<path d="M9.56264 20.4163C10.4626 21.5 12.1366 21.5 15.4854 21.5H16.0269C19.3756 21.5 21.0504 21.5 21.9504 20.4163M9.56264 20.4163C8.66264 19.3318 8.97164 17.6862 9.58889 14.3937C10.0276 12.0537 10.2466 10.883 11.0799 10.1915M21.9504 20.4163C22.8504 19.3318 22.5414 17.6862 21.9241 14.3937C21.4854 12.0537 21.2656 10.883 20.4324 10.1915M20.4324 10.1915C19.5999 9.5 18.4081 9.5 16.0269 9.5H15.4854C13.1041 9.5 11.9131 9.5 11.0799 10.1915" stroke="#767C8F" stroke-width="1.125"/>
<path d="M13.6338 12.5C13.7887 12.9391 14.0761 13.3194 14.4562 13.5884C14.8364 13.8574 15.2906 14.0018 15.7563 14.0018C16.222 14.0018 16.6762 13.8574 17.0563 13.5884C17.4365 13.3194 17.7238 12.9391 17.8788 12.5" stroke="#767C8F" stroke-width="1.125" stroke-linecap="round"/>
</svg>
