<svg width="31" height="32" viewBox="0 0 31 32" fill="none" xmlns="http://www.w3.org/2000/svg">
<circle cx="15.5" cy="16" r="15.5" fill="#F2F4F7"/>
<path d="M22.1139 15.49L22.8865 14.1547C22.9794 13.994 23.0046 13.8031 22.9567 13.6238C22.9088 13.4445 22.7917 13.2916 22.6311 13.1987L21.2944 12.4261V10.8864C21.2944 10.7008 21.2206 10.5228 21.0894 10.3916C20.9582 10.2603 20.7801 10.1866 20.5945 10.1866H19.0556L18.2837 8.8506C18.1904 8.69028 18.0378 8.57312 17.8589 8.52448C17.7701 8.50041 17.6774 8.49421 17.5863 8.50622C17.4951 8.51823 17.4072 8.54823 17.3277 8.59446L15.991 9.36708L14.6543 8.59376C14.4935 8.50096 14.3025 8.47581 14.1232 8.52385C13.944 8.57188 13.7911 8.68917 13.6983 8.8499L12.9257 10.1866H11.3867C11.2011 10.1866 11.0231 10.2603 10.8919 10.3916C10.7606 10.5228 10.6869 10.7008 10.6869 10.8864V12.4254L9.35019 13.198C9.27043 13.2439 9.20053 13.3051 9.14449 13.3781C9.08845 13.451 9.04738 13.5344 9.02364 13.6233C8.9999 13.7122 8.99397 13.8049 9.00617 13.8961C9.01837 13.9873 9.04848 14.0752 9.09475 14.1547L9.86738 15.49L9.09475 16.8253C9.00236 16.9861 8.9773 17.1769 9.02502 17.3561C9.07274 17.5353 9.18937 17.6884 9.34949 17.782L10.6862 18.5546V20.0935C10.6862 20.2792 10.7599 20.4572 10.8912 20.5884C11.0224 20.7196 11.2004 20.7934 11.386 20.7934H12.9257L13.6983 22.1301C13.7603 22.236 13.8487 22.324 13.955 22.3853C14.0613 22.4467 14.1817 22.4793 14.3044 22.48C14.4261 22.48 14.5472 22.4478 14.655 22.3855L15.9903 21.6129L17.327 22.3855C17.4877 22.4782 17.6786 22.5033 17.8578 22.4555C18.037 22.4076 18.1899 22.2906 18.283 22.1301L19.0549 20.7934H20.5938C20.7794 20.7934 20.9575 20.7196 21.0887 20.5884C21.2199 20.4572 21.2937 20.2792 21.2937 20.0935V18.5546L22.6304 17.782C22.71 17.736 22.7798 17.6747 22.8357 17.6017C22.8916 17.5287 22.9326 17.4454 22.9564 17.3566C22.9801 17.2677 22.9861 17.1751 22.974 17.0839C22.9619 16.9927 22.9319 16.9049 22.8858 16.8253L22.1139 15.49ZM14.2407 11.9838C14.5192 11.9839 14.7863 12.0946 14.9831 12.2916C15.18 12.4886 15.2905 12.7557 15.2904 13.0342C15.2903 13.3128 15.1796 13.5798 14.9826 13.7767C14.7856 13.9736 14.5185 14.0841 14.24 14.084C13.9615 14.0839 13.6944 13.9732 13.4975 13.7762C13.3007 13.5792 13.1901 13.3121 13.1902 13.0335C13.1903 12.755 13.301 12.488 13.498 12.2911C13.695 12.0942 13.9622 11.9837 14.2407 11.9838ZM14.4506 18.7023L13.3309 17.8632L17.5299 12.2644L18.6497 13.1035L14.4506 18.7023ZM17.7399 18.9822C17.602 18.9821 17.4654 18.9549 17.3381 18.9021C17.2107 18.8493 17.0949 18.7719 16.9974 18.6744C16.9 18.5768 16.8227 18.461 16.7699 18.3336C16.7172 18.2062 16.6901 18.0696 16.6901 17.9317C16.6902 17.7938 16.7174 17.6573 16.7702 17.5299C16.823 17.4025 16.9004 17.2868 16.9979 17.1893C17.0955 17.0918 17.2113 17.0145 17.3387 16.9618C17.4661 16.909 17.6027 16.8819 17.7406 16.882C18.0191 16.8821 18.2862 16.9928 18.483 17.1898C18.6799 17.3868 18.7904 17.6539 18.7903 17.9324C18.7903 18.2109 18.6795 18.478 18.4825 18.6749C18.2855 18.8717 18.0184 18.9823 17.7399 18.9822Z" stroke="#767C8F" stroke-width="0.69"/>
</svg>
