<svg width="31" height="32" viewBox="0 0 31 32" fill="none" xmlns="http://www.w3.org/2000/svg">
<circle cx="15.5" cy="16" r="15.5" fill="#F2F4F7"/>
<mask id="path-2-inside-1_691_3248" fill="white">
<path fill-rule="evenodd" clip-rule="evenodd" d="M15.5814 9.9186C15.5814 9.80758 15.6255 9.70111 15.704 9.62261C15.7825 9.5441 15.889 9.5 16 9.5C19.3137 9.5 22 12.1863 22 15.5C22 18.8137 19.3137 21.5 16 21.5C12.6863 21.5 10 18.8137 10 15.5C10 15.389 10.0441 15.2825 10.1226 15.204C10.2011 15.1255 10.3076 15.0814 10.4186 15.0814C10.5296 15.0814 10.6361 15.1255 10.7146 15.204C10.7931 15.2825 10.8372 15.389 10.8372 15.5C10.8372 16.5211 11.14 17.5193 11.7073 18.3683C12.2746 19.2173 13.0809 19.879 14.0243 20.2698C14.9677 20.6606 16.0057 20.7628 17.0072 20.5636C18.0087 20.3644 18.9286 19.8727 19.6506 19.1506C20.3727 18.4286 20.8644 17.5087 21.0636 16.5072C21.2628 15.5057 21.1606 14.4677 20.7698 13.5243C20.379 12.5809 19.7173 11.7746 18.8683 11.2073C18.0193 10.64 17.0211 10.3372 16 10.3372C15.889 10.3372 15.7825 10.2931 15.704 10.2146C15.6255 10.1361 15.5814 10.0296 15.5814 9.9186ZM16 13.407C16.111 13.407 16.2175 13.4511 16.296 13.5296C16.3745 13.6081 16.4186 13.7146 16.4186 13.8256V15.6395H18.2326C18.3436 15.6395 18.4501 15.6836 18.5286 15.7621C18.6071 15.8406 18.6512 15.9471 18.6512 16.0581C18.6512 16.1692 18.6071 16.2756 18.5286 16.3541C18.4501 16.4326 18.3436 16.4767 18.2326 16.4767H16C15.889 16.4767 15.7825 16.4326 15.704 16.3541C15.6255 16.2756 15.5814 16.1692 15.5814 16.0581V13.8256C15.5814 13.7146 15.6255 13.6081 15.704 13.5296C15.7825 13.4511 15.889 13.407 16 13.407ZM14.3814 10.1407C14.4012 10.192 14.4107 10.2468 14.4094 10.3017C14.408 10.3567 14.3959 10.4109 14.3736 10.4612C14.3513 10.5115 14.3193 10.5568 14.2795 10.5948C14.2396 10.6327 14.1927 10.6624 14.1414 10.6821C14.0625 10.7124 13.9843 10.7446 13.907 10.7787C13.8564 10.8036 13.8013 10.8179 13.7451 10.821C13.6888 10.8241 13.6325 10.8157 13.5795 10.7965C13.5266 10.7773 13.478 10.7475 13.4368 10.7091C13.3956 10.6707 13.3626 10.6243 13.3397 10.5728C13.3169 10.5213 13.3047 10.4657 13.3038 10.4094C13.3029 10.353 13.3135 10.2971 13.3347 10.2449C13.356 10.1927 13.3876 10.1454 13.4276 10.1057C13.4677 10.0661 13.5153 10.0349 13.5676 10.014C13.6569 9.97386 13.7479 9.93591 13.84 9.90074C13.8913 9.88093 13.946 9.87143 14.001 9.87277C14.056 9.87411 14.1102 9.88627 14.1604 9.90856C14.2107 9.93085 14.2561 9.96283 14.294 10.0027C14.3319 10.0425 14.3616 10.0894 14.3814 10.1407ZM12.4547 11.1688C12.5312 11.2492 12.5726 11.3567 12.5699 11.4677C12.5672 11.5786 12.5205 11.6839 12.4402 11.7605C12.379 11.8189 12.3193 11.8788 12.261 11.9402C12.1844 12.0206 12.079 12.0674 11.9679 12.0701C11.8569 12.0728 11.7493 12.0313 11.6688 11.9547C11.5884 11.8781 11.5417 11.7727 11.5389 11.6616C11.5362 11.5506 11.5777 11.443 11.6543 11.3625C11.7224 11.2916 11.7916 11.2224 11.8625 11.1543C11.9429 11.0778 12.0504 11.0364 12.1613 11.0391C12.2723 11.0418 12.3781 11.0885 12.4547 11.1688ZM11.066 12.855C11.1163 12.8773 11.1617 12.9093 11.1995 12.9491C11.2374 12.989 11.2671 13.0359 11.2868 13.0872C11.3066 13.1385 11.316 13.1932 11.3146 13.2482C11.3132 13.3031 11.301 13.3573 11.2787 13.4075C11.2447 13.4846 11.2117 13.5627 11.1816 13.6414C11.1399 13.7425 11.0602 13.8232 10.9598 13.8663C10.8593 13.9095 10.7459 13.9116 10.6439 13.8722C10.5419 13.8328 10.4593 13.7551 10.4139 13.6556C10.3685 13.5562 10.3637 13.4429 10.4007 13.34C10.4359 13.2479 10.4733 13.1575 10.5135 13.0676C10.5358 13.0174 10.5678 12.972 10.6076 12.9341C10.6475 12.8963 10.6944 12.8666 10.7457 12.8468C10.797 12.8271 10.8517 12.8177 10.9067 12.819C10.9617 12.8204 11.0158 12.8327 11.066 12.855Z"/>
</mask>
<path fill-rule="evenodd" clip-rule="evenodd" d="M15.5814 9.9186C15.5814 9.80758 15.6255 9.70111 15.704 9.62261C15.7825 9.5441 15.889 9.5 16 9.5C19.3137 9.5 22 12.1863 22 15.5C22 18.8137 19.3137 21.5 16 21.5C12.6863 21.5 10 18.8137 10 15.5C10 15.389 10.0441 15.2825 10.1226 15.204C10.2011 15.1255 10.3076 15.0814 10.4186 15.0814C10.5296 15.0814 10.6361 15.1255 10.7146 15.204C10.7931 15.2825 10.8372 15.389 10.8372 15.5C10.8372 16.5211 11.14 17.5193 11.7073 18.3683C12.2746 19.2173 13.0809 19.879 14.0243 20.2698C14.9677 20.6606 16.0057 20.7628 17.0072 20.5636C18.0087 20.3644 18.9286 19.8727 19.6506 19.1506C20.3727 18.4286 20.8644 17.5087 21.0636 16.5072C21.2628 15.5057 21.1606 14.4677 20.7698 13.5243C20.379 12.5809 19.7173 11.7746 18.8683 11.2073C18.0193 10.64 17.0211 10.3372 16 10.3372C15.889 10.3372 15.7825 10.2931 15.704 10.2146C15.6255 10.1361 15.5814 10.0296 15.5814 9.9186ZM16 13.407C16.111 13.407 16.2175 13.4511 16.296 13.5296C16.3745 13.6081 16.4186 13.7146 16.4186 13.8256V15.6395H18.2326C18.3436 15.6395 18.4501 15.6836 18.5286 15.7621C18.6071 15.8406 18.6512 15.9471 18.6512 16.0581C18.6512 16.1692 18.6071 16.2756 18.5286 16.3541C18.4501 16.4326 18.3436 16.4767 18.2326 16.4767H16C15.889 16.4767 15.7825 16.4326 15.704 16.3541C15.6255 16.2756 15.5814 16.1692 15.5814 16.0581V13.8256C15.5814 13.7146 15.6255 13.6081 15.704 13.5296C15.7825 13.4511 15.889 13.407 16 13.407ZM14.3814 10.1407C14.4012 10.192 14.4107 10.2468 14.4094 10.3017C14.408 10.3567 14.3959 10.4109 14.3736 10.4612C14.3513 10.5115 14.3193 10.5568 14.2795 10.5948C14.2396 10.6327 14.1927 10.6624 14.1414 10.6821C14.0625 10.7124 13.9843 10.7446 13.907 10.7787C13.8564 10.8036 13.8013 10.8179 13.7451 10.821C13.6888 10.8241 13.6325 10.8157 13.5795 10.7965C13.5266 10.7773 13.478 10.7475 13.4368 10.7091C13.3956 10.6707 13.3626 10.6243 13.3397 10.5728C13.3169 10.5213 13.3047 10.4657 13.3038 10.4094C13.3029 10.353 13.3135 10.2971 13.3347 10.2449C13.356 10.1927 13.3876 10.1454 13.4276 10.1057C13.4677 10.0661 13.5153 10.0349 13.5676 10.014C13.6569 9.97386 13.7479 9.93591 13.84 9.90074C13.8913 9.88093 13.946 9.87143 14.001 9.87277C14.056 9.87411 14.1102 9.88627 14.1604 9.90856C14.2107 9.93085 14.2561 9.96283 14.294 10.0027C14.3319 10.0425 14.3616 10.0894 14.3814 10.1407ZM12.4547 11.1688C12.5312 11.2492 12.5726 11.3567 12.5699 11.4677C12.5672 11.5786 12.5205 11.6839 12.4402 11.7605C12.379 11.8189 12.3193 11.8788 12.261 11.9402C12.1844 12.0206 12.079 12.0674 11.9679 12.0701C11.8569 12.0728 11.7493 12.0313 11.6688 11.9547C11.5884 11.8781 11.5417 11.7727 11.5389 11.6616C11.5362 11.5506 11.5777 11.443 11.6543 11.3625C11.7224 11.2916 11.7916 11.2224 11.8625 11.1543C11.9429 11.0778 12.0504 11.0364 12.1613 11.0391C12.2723 11.0418 12.3781 11.0885 12.4547 11.1688ZM11.066 12.855C11.1163 12.8773 11.1617 12.9093 11.1995 12.9491C11.2374 12.989 11.2671 13.0359 11.2868 13.0872C11.3066 13.1385 11.316 13.1932 11.3146 13.2482C11.3132 13.3031 11.301 13.3573 11.2787 13.4075C11.2447 13.4846 11.2117 13.5627 11.1816 13.6414C11.1399 13.7425 11.0602 13.8232 10.9598 13.8663C10.8593 13.9095 10.7459 13.9116 10.6439 13.8722C10.5419 13.8328 10.4593 13.7551 10.4139 13.6556C10.3685 13.5562 10.3637 13.4429 10.4007 13.34C10.4359 13.2479 10.4733 13.1575 10.5135 13.0676C10.5358 13.0174 10.5678 12.972 10.6076 12.9341C10.6475 12.8963 10.6944 12.8666 10.7457 12.8468C10.797 12.8271 10.8517 12.8177 10.9067 12.819C10.9617 12.8204 11.0158 12.8327 11.066 12.855Z" fill="#767C8F"/>
<path d="M16 9.5V8V9.5ZM10.8372 15.5H12.3372H10.8372ZM16 10.3372V8.83721V10.3372ZM16.4186 15.6395H14.9186V17.1395H16.4186V15.6395ZM14.3814 10.1407L12.9817 10.6801L12.9821 10.681L14.3814 10.1407ZM14.1414 10.6821L14.6782 12.0828L14.6807 12.0818L14.1414 10.6821ZM13.907 10.7787L13.3016 9.4063L13.2732 9.41881L13.2454 9.43248L13.907 10.7787ZM13.5676 10.014L14.1221 11.4078L14.1529 11.3956L14.1832 11.3819L13.5676 10.014ZM13.84 9.90074L14.3751 11.3021L14.3803 11.3001L13.84 9.90074ZM12.4547 11.1688L13.5414 10.1349L13.5407 10.1342L12.4547 11.1688ZM12.4402 11.7605L11.4055 10.6744L11.4041 10.6758L12.4402 11.7605ZM12.261 11.9402L13.3474 12.9745L13.3489 12.9729L12.261 11.9402ZM11.6543 11.3625L10.5726 10.3233L10.568 10.3282L11.6543 11.3625ZM11.8625 11.1543L10.8285 10.0676L10.8234 10.0726L11.8625 11.1543ZM11.066 12.855L10.457 14.2257L10.4573 14.2259L11.066 12.855ZM11.2787 13.4075L9.90792 12.7984L9.90675 12.8011L11.2787 13.4075ZM11.1816 13.6414L12.5681 14.2137L12.5755 14.1959L12.5824 14.1779L11.1816 13.6414ZM10.4007 13.34L8.99942 12.8049L8.99421 12.8186L8.98928 12.8323L10.4007 13.34ZM10.5135 13.0676L11.8828 13.68L11.8844 13.6764L10.5135 13.0676ZM17.0814 9.9186C17.0814 10.2054 16.9675 10.4805 16.7647 10.6833L14.6433 8.56195C14.2835 8.92175 14.0814 9.40976 14.0814 9.9186H17.0814ZM16.7647 10.6833C16.5619 10.8861 16.2868 11 16 11V8C15.4912 8 15.0031 8.20214 14.6433 8.56195L16.7647 10.6833ZM16 11C18.4852 11 20.5 13.0148 20.5 15.5H23.5C23.5 11.3579 20.1421 8 16 8V11ZM20.5 15.5C20.5 17.9852 18.4852 20 16 20V23C20.1421 23 23.5 19.6421 23.5 15.5H20.5ZM16 20C13.5148 20 11.5 17.9852 11.5 15.5H8.5C8.5 19.6421 11.8579 23 16 23V20ZM11.5 15.5C11.5 15.7868 11.3861 16.0619 11.1833 16.2647L9.06195 14.1433C8.70214 14.5031 8.5 14.9912 8.5 15.5H11.5ZM11.1833 16.2647C10.9805 16.4675 10.7054 16.5814 10.4186 16.5814V13.5814C9.90976 13.5814 9.42175 13.7835 9.06195 14.1433L11.1833 16.2647ZM10.4186 16.5814C10.1318 16.5814 9.85674 16.4675 9.65394 16.2647L11.7753 14.1433C11.4155 13.7835 10.9275 13.5814 10.4186 13.5814V16.5814ZM9.65394 16.2647C9.45114 16.0619 9.33721 15.7868 9.33721 15.5H12.3372C12.3372 14.9912 12.1351 14.5031 11.7753 14.1433L9.65394 16.2647ZM9.33721 15.5C9.33721 16.8178 9.72798 18.106 10.4601 19.2016L12.9545 17.5349C12.552 16.9326 12.3372 16.2244 12.3372 15.5H9.33721ZM10.4601 19.2016C11.1922 20.2973 12.2328 21.1513 13.4503 21.6556L14.5983 18.884C13.929 18.6067 13.357 18.1373 12.9545 17.5349L10.4601 19.2016ZM13.4503 21.6556C14.6677 22.1599 16.0074 22.2919 17.2998 22.0348L16.7146 19.0924C16.0041 19.2337 15.2676 19.1612 14.5983 18.884L13.4503 21.6556ZM17.2998 22.0348C18.5923 21.7777 19.7795 21.1431 20.7113 20.2113L18.59 18.09C18.0777 18.6022 17.4251 18.9511 16.7146 19.0924L17.2998 22.0348ZM20.7113 20.2113C21.6431 19.2795 22.2777 18.0923 22.5348 16.7998L19.5924 16.2146C19.4511 16.9251 19.1022 17.5777 18.59 18.09L20.7113 20.2113ZM22.5348 16.7998C22.7919 15.5074 22.6599 14.1677 22.1556 12.9503L19.384 14.0983C19.6612 14.7676 19.7337 15.5041 19.5924 16.2146L22.5348 16.7998ZM22.1556 12.9503C21.6513 11.7328 20.7973 10.6922 19.7016 9.96009L18.0349 12.4545C18.6373 12.857 19.1067 13.429 19.384 14.0983L22.1556 12.9503ZM19.7016 9.96009C18.606 9.22798 17.3178 8.83721 16 8.83721V11.8372C16.7244 11.8372 17.4326 12.052 18.0349 12.4545L19.7016 9.96009ZM16 8.83721C16.2868 8.83721 16.5619 8.95114 16.7647 9.15394L14.6433 11.2753C15.0031 11.6351 15.4912 11.8372 16 11.8372V8.83721ZM16.7647 9.15394C16.9675 9.35674 17.0814 9.6318 17.0814 9.9186H14.0814C14.0814 10.4275 14.2835 10.9155 14.6433 11.2753L16.7647 9.15394ZM16 14.907C15.7132 14.907 15.4381 14.793 15.2353 14.5902L17.3567 12.4689C16.9969 12.1091 16.5088 11.907 16 11.907V14.907ZM15.2353 14.5902C15.0325 14.3874 14.9186 14.1124 14.9186 13.8256H17.9186C17.9186 13.3167 17.7165 12.8287 17.3567 12.4689L15.2353 14.5902ZM14.9186 13.8256V15.6395H17.9186V13.8256H14.9186ZM16.4186 17.1395H18.2326V14.1395H16.4186V17.1395ZM18.2326 17.1395C17.9458 17.1395 17.6707 17.0256 17.4679 16.8228L19.5892 14.7015C19.2294 14.3417 18.7414 14.1395 18.2326 14.1395V17.1395ZM17.4679 16.8228C17.2651 16.62 17.1512 16.3449 17.1512 16.0581H20.1512C20.1512 15.5493 19.949 15.0613 19.5892 14.7015L17.4679 16.8228ZM17.1512 16.0581C17.1512 15.7713 17.2651 15.4963 17.4679 15.2935L19.5892 17.4148C19.949 17.055 20.1512 16.567 20.1512 16.0581H17.1512ZM17.4679 15.2935C17.6707 15.0907 17.9458 14.9767 18.2326 14.9767V17.9767C18.7414 17.9767 19.2294 17.7746 19.5892 17.4148L17.4679 15.2935ZM18.2326 14.9767H16V17.9767H18.2326V14.9767ZM16 14.9767C16.2868 14.9767 16.5619 15.0907 16.7647 15.2935L14.6433 17.4148C15.0031 17.7746 15.4912 17.9767 16 17.9767V14.9767ZM16.7647 15.2935C16.9675 15.4963 17.0814 15.7713 17.0814 16.0581H14.0814C14.0814 16.567 14.2835 17.055 14.6433 17.4148L16.7647 15.2935ZM17.0814 16.0581V13.8256H14.0814V16.0581H17.0814ZM17.0814 13.8256C17.0814 14.1124 16.9675 14.3874 16.7647 14.5902L14.6433 12.4689C14.2835 12.8287 14.0814 13.3167 14.0814 13.8256H17.0814ZM16.7647 14.5902C16.5619 14.793 16.2868 14.907 16 14.907V11.907C15.4912 11.907 15.0031 12.1091 14.6433 12.4689L16.7647 14.5902ZM12.9821 10.681C12.9309 10.5485 12.9064 10.4072 12.9098 10.2652L15.9089 10.3383C15.9151 10.0863 15.8715 9.83559 15.7807 9.60044L12.9821 10.681ZM12.9098 10.2652C12.9133 10.1231 12.9447 9.98316 13.0023 9.85328L15.7449 11.0691C15.847 10.8386 15.9028 10.5903 15.9089 10.3383L12.9098 10.2652ZM13.0023 9.85328C13.0599 9.72339 13.1425 9.60612 13.2454 9.50818L15.3136 11.6813C15.4962 11.5076 15.6427 11.2995 15.7449 11.0691L13.0023 9.85328ZM13.2454 9.50818C13.3483 9.41024 13.4695 9.33353 13.6021 9.28245L14.6807 12.0818C14.9159 11.9912 15.131 11.8551 15.3136 11.6813L13.2454 9.50818ZM13.6046 9.28149C13.5026 9.32059 13.4015 9.3622 13.3016 9.4063L14.5124 12.1511C14.5671 12.127 14.6224 12.1042 14.6782 12.0828L13.6046 9.28149ZM13.2454 9.43248C13.376 9.36827 13.5183 9.33111 13.6637 9.32321L13.8265 12.3188C14.0844 12.3048 14.3368 12.2388 14.5686 12.1249L13.2454 9.43248ZM13.6637 9.32321C13.809 9.31531 13.9545 9.33683 14.0913 9.3865L13.0678 12.2065C13.3105 12.2946 13.5686 12.3328 13.8265 12.3188L13.6637 9.32321ZM14.0913 9.3865C14.2281 9.43616 14.3535 9.51294 14.46 9.61224L12.4137 11.806C12.6025 11.9822 12.825 12.1184 13.0678 12.2065L14.0913 9.3865ZM14.46 9.61224C14.5664 9.71153 14.6517 9.8313 14.7108 9.96435L11.9687 11.1813C12.0734 11.4173 12.2248 11.6298 12.4137 11.806L14.46 9.61224ZM14.7108 9.96435C14.7698 10.0974 14.8014 10.241 14.8036 10.3866L11.804 10.4322C11.8079 10.6904 11.8639 10.9452 11.9687 11.1813L14.7108 9.96435ZM14.8036 10.3866C14.8058 10.5321 14.7786 10.6766 14.7237 10.8114L11.9458 9.67844C11.8483 9.91758 11.8 10.174 11.804 10.4322L14.8036 10.3866ZM14.7237 10.8114C14.6687 10.9462 14.5871 11.0685 14.4837 11.171L12.3716 9.04048C12.1882 9.22231 12.0434 9.4393 11.9458 9.67844L14.7237 10.8114ZM14.4837 11.171C14.3803 11.2735 14.2573 11.354 14.1221 11.4078L13.0132 8.62027C12.7732 8.71573 12.555 8.85865 12.3716 9.04048L14.4837 11.171ZM14.1832 11.3819C14.2472 11.3531 14.3113 11.3264 14.3751 11.3021L13.3049 8.49942C13.1845 8.54542 13.0666 8.59461 12.9521 8.64616L14.1832 11.3819ZM14.3803 11.3001C14.2478 11.3512 14.1064 11.3758 13.9644 11.3723L14.0376 8.37322C13.7856 8.36707 13.5348 8.41064 13.2997 8.50143L14.3803 11.3001ZM13.9644 11.3723C13.8224 11.3689 13.6824 11.3374 13.5525 11.2799L14.7683 8.53726C14.5379 8.43511 14.2896 8.37936 14.0376 8.37322L13.9644 11.3723ZM13.5525 11.2799C13.4226 11.2223 13.3054 11.1397 13.2074 11.0368L15.3806 8.96858C15.2068 8.78598 14.9988 8.63942 14.7683 8.53726L13.5525 11.2799ZM13.2074 11.0368C13.1095 10.9338 13.0328 10.8126 12.9817 10.6801L15.7811 9.60143C15.6905 9.36621 15.5544 9.15117 15.3806 8.96858L13.2074 11.0368ZM11.368 12.2028C11.1704 11.9951 11.0633 11.7175 11.0704 11.4309L14.0695 11.5044C14.0819 10.996 13.892 10.5033 13.5414 10.1349L11.368 12.2028ZM11.0704 11.4309C11.0774 11.1443 11.1979 10.8722 11.4055 10.6744L13.4749 12.8465C13.8431 12.4956 14.057 12.0129 14.0695 11.5044L11.0704 11.4309ZM11.4041 10.6758C11.3252 10.7511 11.2482 10.8284 11.1732 10.9074L13.3489 12.9729C13.3903 12.9293 13.4328 12.8867 13.4763 12.8451L11.4041 10.6758ZM11.1747 10.9058C11.3724 10.6982 11.6445 10.5776 11.9312 10.5705L12.0047 13.5696C12.5134 13.5572 12.9964 13.3431 13.3473 12.9745L11.1747 10.9058ZM11.9312 10.5705C12.2178 10.5635 12.4955 10.6706 12.7032 10.8684L10.6345 13.041C11.003 13.392 11.4959 13.5821 12.0047 13.5696L11.9312 10.5705ZM12.7032 10.8684C12.9109 11.0661 13.0315 11.3382 13.0385 11.6249L10.0394 11.6984C10.0519 12.2071 10.2659 12.6901 10.6345 13.041L12.7032 10.8684ZM13.0385 11.6249C13.0455 11.9115 12.9384 12.1892 12.7407 12.3969L10.568 10.3282C10.2171 10.6967 10.0269 11.1896 10.0394 11.6984L13.0385 11.6249ZM12.7361 12.4017C12.7902 12.3453 12.8453 12.2902 12.9017 12.2361L10.8234 10.0726C10.738 10.1546 10.6546 10.238 10.5726 10.3234L12.7361 12.4017ZM12.8965 12.241C12.6888 12.4386 12.4111 12.5457 12.1245 12.5387L12.1981 9.53956C11.6896 9.52709 11.197 9.71703 10.8285 10.0676L12.8965 12.241ZM12.1245 12.5387C11.8402 12.5317 11.568 12.4127 11.3687 12.2035L13.5407 10.1342C13.1883 9.76428 12.7043 9.55198 12.1981 9.53956L12.1245 12.5387ZM10.4573 14.2259C10.3275 14.1682 10.2103 14.0856 10.1124 13.9827L12.2867 11.9156C12.113 11.733 11.9051 11.5863 11.6748 11.4841L10.4573 14.2259ZM10.1124 13.9827C10.0146 13.8797 9.93793 13.7585 9.88692 13.626L12.6867 12.5485C12.5962 12.3133 12.4603 12.0982 12.2867 11.9156L10.1124 13.9827ZM9.88692 13.626C9.83591 13.4934 9.81151 13.3521 9.81511 13.2101L12.8141 13.2862C12.8205 13.0343 12.7772 12.7836 12.6867 12.5485L9.88692 13.626ZM9.81511 13.2101C9.81871 13.0681 9.85025 12.9282 9.90793 12.7984L12.6495 14.0166C12.7518 13.7863 12.8077 13.5382 12.8141 13.2862L9.81511 13.2101ZM9.90675 12.8011C9.86594 12.8934 9.82256 12.9959 9.7808 13.1049L12.5824 14.1779C12.6009 14.1295 12.6234 14.0757 12.6506 14.014L9.90675 12.8011ZM9.79505 13.0691C9.90283 12.808 10.1085 12.5994 10.3681 12.488L11.5515 15.2447C12.012 15.047 12.3769 14.677 12.5681 14.2137L9.79505 13.0691ZM10.3681 12.488C10.6276 12.3765 10.9205 12.3711 11.184 12.4728L10.1038 15.2716C10.5713 15.452 11.0909 15.4424 11.5515 15.2447L10.3681 12.488ZM11.184 12.4728C11.4476 12.5746 11.6608 12.7754 11.7782 13.0323L9.04956 14.279C9.25783 14.7348 9.63621 15.0911 10.1038 15.2716L11.184 12.4728ZM11.7782 13.0323C11.8956 13.2892 11.9078 13.5819 11.8122 13.8477L8.98928 12.8323C8.81965 13.3039 8.84128 13.8231 9.04956 14.279L11.7782 13.0323ZM11.8021 13.8751C11.8275 13.8086 11.8542 13.7439 11.8828 13.68L9.14418 12.4553C9.0924 12.571 9.04435 12.6873 8.99942 12.8049L11.8021 13.8751ZM11.8844 13.6764C11.8268 13.8062 11.7441 13.9234 11.6412 14.0213L9.57411 11.847C9.39148 12.0206 9.24485 12.2286 9.14258 12.4589L11.8844 13.6764ZM11.6412 14.0213C11.5382 14.1191 11.417 14.1957 11.2845 14.2468L10.207 11.4469C9.97179 11.5374 9.75675 11.6734 9.57411 11.847L11.6412 14.0213ZM11.2845 14.2468C11.1519 14.2978 11.0106 14.3222 10.8686 14.3186L10.9448 11.3195C10.6928 11.3131 10.4421 11.3564 10.207 11.4469L11.2845 14.2468ZM10.8686 14.3186C10.7266 14.315 10.5868 14.2834 10.457 14.2257L11.6751 11.4842C11.4449 11.3819 11.1967 11.3259 10.9448 11.3195L10.8686 14.3186Z" fill="#767C8F" mask="url(#path-2-inside-1_691_3248)"/>
</svg>
