<svg width="31" height="32" viewBox="0 0 31 32" fill="none" xmlns="http://www.w3.org/2000/svg">
<circle cx="15.5" cy="16" r="15.5" fill="#F2F4F7"/>
<path d="M16.8056 15.8847H15.1944V9.055H16.8056V15.8847ZM10.055 15C10.055 13.3781 10.7041 11.9077 11.7573 10.835L12.888 11.9658C12.1243 12.749 11.6537 13.8197 11.6537 15C11.6537 17.4002 13.5998 19.3463 16 19.3463C18.4002 19.3463 20.3463 17.4002 20.3463 15C20.3463 13.8197 19.8757 12.749 19.112 11.9658L20.2427 10.835C21.2958 11.9077 21.945 13.3781 21.945 15C21.945 18.2833 19.2833 20.945 16 20.945C12.7167 20.945 10.055 18.2833 10.055 15Z" fill="#767C8F" stroke="#F2F4F7" stroke-width="0.11"/>
</svg>
