<svg width="31" height="32" viewBox="0 0 31 32" fill="none" xmlns="http://www.w3.org/2000/svg">
<circle cx="15.5" cy="16" r="15.5" fill="#F2F4F7"/>
<path d="M20.1239 21.9005H10.3905C10.0217 21.9005 9.66803 21.754 9.40727 21.4932C9.1465 21.2325 9 20.8788 9 20.51V14.2528C9 13.884 9.1465 13.5303 9.40727 13.2696C9.66803 13.0088 10.0217 12.8623 10.3905 12.8623H20.1239C20.4927 12.8623 20.8464 13.0088 21.1072 13.2696C21.3679 13.5303 21.5144 13.884 21.5144 14.2528V20.51C21.5144 20.8788 21.3679 21.2325 21.1072 21.4932C20.8464 21.754 20.4927 21.9005 20.1239 21.9005Z" stroke="#767C8F" stroke-width="0.8"/>
<path d="M18.3857 17.7275C18.2935 17.7275 18.2051 17.6908 18.1399 17.6257C18.0747 17.5605 18.0381 17.472 18.0381 17.3798C18.0381 17.2877 18.0747 17.1992 18.1399 17.134C18.2051 17.0689 18.2935 17.0322 18.3857 17.0322C18.4779 17.0322 18.5663 17.0689 18.6315 17.134C18.6967 17.1992 18.7333 17.2877 18.7333 17.3798C18.7333 17.472 18.6967 17.5605 18.6315 17.6257C18.5663 17.6908 18.4779 17.7275 18.3857 17.7275Z" fill="black" stroke="#767C8F" stroke-width="0.8" stroke-linecap="round" stroke-linejoin="round"/>
<path d="M19.4287 12.8614V11.8901C19.4286 11.677 19.3796 11.4668 19.2854 11.2757C19.1911 11.0845 19.0543 10.9176 18.8853 10.7878C18.7163 10.658 18.5197 10.5687 18.3108 10.527C18.1018 10.4852 17.886 10.492 17.6801 10.5469L10.0324 12.586C9.7363 12.665 9.47453 12.8395 9.28782 13.0825C9.10112 13.3256 8.99993 13.6235 9 13.93V14.2519" stroke="#767C8F" stroke-width="0.8"/>
</svg>
