<svg width="8" height="11" viewBox="0 0 8 11" fill="none" xmlns="http://www.w3.org/2000/svg">
<path d="M7.455 2.201H5.075C5.30833 2.35033 5.49033 2.523 5.621 2.719C5.75167 2.91033 5.845 3.12033 5.901 3.349H7.455V4.679H5.894C5.78667 5.113 5.572 5.498 5.25 5.834C4.928 6.17 4.50567 6.43133 3.983 6.618C4.12767 6.68333 4.26067 6.76967 4.382 6.877C4.508 6.98433 4.62 7.11267 4.718 7.262L7.252 11H5.551C5.23367 11 5.00033 10.874 4.851 10.622L2.723 7.381C2.64367 7.25967 2.555 7.17333 2.457 7.122C2.36367 7.07067 2.22367 7.045 2.037 7.045H0.721V5.771H2.107C2.639 5.771 3.06367 5.67067 3.381 5.47C3.703 5.26933 3.92933 5.00567 4.06 4.679H0.714V3.349H4.102C3.99 3.00833 3.77067 2.74233 3.444 2.551C3.122 2.355 2.68567 2.257 2.135 2.257H0.721V0.877999H7.455V2.201Z" fill="#999999"/>
</svg>
