<svg xmlns="http://www.w3.org/2000/svg" width="19" height="19" viewBox="0 0 19 19" fill="none">
<path d="M0.388731 9.07014C0.388304 10.6128 0.79139 12.1191 1.55785 13.4468L0.31543 17.9831L4.95775 16.7659C6.24175 17.4649 7.68039 17.8311 9.14233 17.8312H9.14617C13.9723 17.8312 17.9009 13.904 17.903 9.07705C17.9039 6.73802 16.9938 4.53856 15.3403 2.8838C13.6871 1.22918 11.4885 0.317474 9.14581 0.316406C4.3191 0.316406 0.390795 4.24336 0.388802 9.07014" fill="url(#paint0_linear_952_5070)"/>
<path d="M0.0761479 9.06772C0.0756497 10.6659 0.493182 12.2261 1.28697 13.6013L0 18.3002L4.80878 17.0393C6.13375 17.7617 7.62554 18.1426 9.14351 18.1432H9.14743C14.1467 18.1432 18.2164 14.0748 18.2186 9.07498C18.2194 6.65191 17.2766 4.37338 15.5641 2.65934C13.8513 0.945515 11.574 0.000996328 9.14743 0C4.14728 0 0.0781406 4.06786 0.0761479 9.06772ZM2.93988 13.3645L2.76033 13.0794C2.00554 11.8793 1.60715 10.4924 1.60772 9.06829C1.60935 4.91254 4.99146 1.5315 9.15027 1.5315C11.1643 1.53235 13.057 2.31746 14.4806 3.74192C15.9042 5.16653 16.6875 7.06026 16.687 9.07441C16.6851 13.2302 13.303 16.6116 9.14743 16.6116H9.14444C7.79135 16.6109 6.46432 16.2475 5.30701 15.5609L5.0316 15.3975L2.17797 16.1457L2.93988 13.3644V13.3645Z" fill="#E9E8E8"/>
<path d="M6.88017 5.27678C6.71037 4.89939 6.53167 4.89177 6.37019 4.88516C6.23796 4.87946 6.08681 4.87989 5.93579 4.87989C5.78463 4.87989 5.53904 4.93675 5.33145 5.16342C5.12364 5.39029 4.53809 5.93856 4.53809 7.05366C4.53809 8.16884 5.35031 9.24651 5.46353 9.39788C5.5769 9.54897 7.03154 11.9105 9.33533 12.8191C11.25 13.5741 11.6396 13.4239 12.0552 13.386C12.4708 13.3483 13.3962 12.8379 13.585 12.3087C13.774 11.7795 13.774 11.3258 13.7173 11.2311C13.6607 11.1366 13.5095 11.0799 13.2829 10.9666C13.0561 10.8532 11.9418 10.3049 11.7341 10.2292C11.5263 10.1537 11.3752 10.1159 11.224 10.3429C11.0729 10.5695 10.6388 11.0799 10.5065 11.2311C10.3744 11.3826 10.2421 11.4014 10.0155 11.2881C9.78866 11.1743 9.05871 10.9353 8.19269 10.1632C7.51889 9.56242 7.06399 8.82051 6.93176 8.59356C6.79954 8.36697 6.9176 8.24413 7.03125 8.13119C7.13309 8.02964 7.25799 7.86653 7.37143 7.73423C7.48444 7.60186 7.52216 7.50742 7.59774 7.35626C7.67339 7.20496 7.63553 7.07259 7.57895 6.95923C7.52216 6.84586 7.08171 5.72492 6.88017 5.27678Z" fill="white"/>
<defs>
<linearGradient id="paint0_linear_952_5070" x1="879.692" y1="1766.98" x2="879.692" y2="0.316406" gradientUnits="userSpaceOnUse">
<stop stop-color="#1FAF38"/>
<stop offset="1" stop-color="#60D669"/>
</linearGradient>
</defs>
</svg>